<svg width="52" height="53" viewBox="0 0 52 53" fill="none" xmlns="http://www.w3.org/2000/svg">
<path d="M51.5 12.8553C51.5 6.50407 46.3513 1.35535 40 1.35535H12C5.64872 1.35535 0.5 6.50407 0.5 12.8553V40.8553C0.5 47.2066 5.64872 52.3553 12 52.3553H40C46.3513 52.3553 51.5 47.2066 51.5 40.8553V12.8553Z" fill="white"/>
<path d="M51.5 12.8553C51.5 6.50407 46.3513 1.35535 40 1.35535H12C5.64872 1.35535 0.5 6.50407 0.5 12.8553V40.8553C0.5 47.2066 5.64872 52.3553 12 52.3553H40C46.3513 52.3553 51.5 47.2066 51.5 40.8553V12.8553Z" stroke="#F5F3F2"/>
<path d="M33 26.8553H19" stroke="#412D3D" stroke-width="2" stroke-linecap="round" stroke-linejoin="round"/>
<path d="M26 19.8553L19 26.8553L26 33.8553" stroke="#412D3D" stroke-width="2" stroke-linecap="round" stroke-linejoin="round"/>
</svg>
