<svg width="226" height="119" viewBox="0 0 226 119" fill="none" xmlns="http://www.w3.org/2000/svg">
<rect x="0.5" y="1.35535" width="67" height="27" rx="13.5" fill="white"/>
<rect x="0.5" y="1.35535" width="67" height="27" rx="13.5" stroke="#F5F3F2"/>
<path d="M13.0568 10.1281H14.3182L17.2841 17.3724H17.3864L20.3523 10.1281H21.6136V18.8553H20.625V12.2247H20.5398L17.8125 18.8553H16.858L14.1307 12.2247H14.0455V18.8553H13.0568V10.1281ZM26.2553 18.9917C25.6644 18.9917 25.146 18.8511 24.6999 18.5698C24.2567 18.2886 23.9102 17.8951 23.6602 17.3894C23.413 16.8838 23.2894 16.2928 23.2894 15.6167C23.2894 14.9349 23.413 14.3397 23.6602 13.8312C23.9102 13.3227 24.2567 12.9278 24.6999 12.6465C25.146 12.3653 25.6644 12.2247 26.2553 12.2247C26.8462 12.2247 27.3633 12.3653 27.8065 12.6465C28.2525 12.9278 28.5991 13.3227 28.8462 13.8312C29.0962 14.3397 29.2212 14.9349 29.2212 15.6167C29.2212 16.2928 29.0962 16.8838 28.8462 17.3894C28.5991 17.8951 28.2525 18.2886 27.8065 18.5698C27.3633 18.8511 26.8462 18.9917 26.2553 18.9917ZM26.2553 18.0883C26.7042 18.0883 27.0735 17.9732 27.3633 17.7431C27.6531 17.513 27.8675 17.2105 28.0067 16.8355C28.146 16.4605 28.2156 16.0542 28.2156 15.6167C28.2156 15.1792 28.146 14.7715 28.0067 14.3937C27.8675 14.0159 27.6531 13.7105 27.3633 13.4775C27.0735 13.2446 26.7042 13.1281 26.2553 13.1281C25.8065 13.1281 25.4371 13.2446 25.1474 13.4775C24.8576 13.7105 24.6431 14.0159 24.5039 14.3937C24.3647 14.7715 24.2951 15.1792 24.2951 15.6167C24.2951 16.0542 24.3647 16.4605 24.5039 16.8355C24.6431 17.2105 24.8576 17.513 25.1474 17.7431C25.4371 17.9732 25.8065 18.0883 26.2553 18.0883ZM33.228 18.9917C32.6825 18.9917 32.201 18.8539 31.7834 18.5784C31.3658 18.2999 31.0391 17.9079 30.8033 17.4022C30.5675 16.8937 30.4496 16.2928 30.4496 15.5997C30.4496 14.9122 30.5675 14.3156 30.8033 13.8099C31.0391 13.3042 31.3672 12.9136 31.7876 12.638C32.2081 12.3624 32.6939 12.2247 33.245 12.2247C33.6712 12.2247 34.0078 12.2957 34.255 12.4377C34.505 12.5769 34.6953 12.736 34.826 12.915C34.9595 13.0911 35.0632 13.236 35.1371 13.3497H35.2223V10.1281H36.228V18.8553H35.2564V17.8497H35.1371C35.0632 17.969 34.9581 18.1196 34.8217 18.3014C34.6854 18.4803 34.4908 18.6409 34.2379 18.7829C33.9851 18.9221 33.6484 18.9917 33.228 18.9917ZM33.3643 18.0883C33.7678 18.0883 34.1087 17.9832 34.3871 17.773C34.6655 17.5599 34.8771 17.2659 35.022 16.8909C35.1669 16.513 35.2393 16.0769 35.2393 15.5826C35.2393 15.094 35.1683 14.6664 35.0263 14.2999C34.8842 13.9306 34.674 13.6437 34.3956 13.4392C34.1172 13.2318 33.7734 13.1281 33.3643 13.1281C32.9382 13.1281 32.5831 13.2374 32.299 13.4562C32.0178 13.6721 31.8061 13.9661 31.6641 14.3383C31.5249 14.7076 31.4553 15.1224 31.4553 15.5826C31.4553 16.0485 31.5263 16.4718 31.6683 16.8525C31.8132 17.2303 32.0263 17.5315 32.3075 17.7559C32.5916 17.9775 32.9439 18.0883 33.3643 18.0883ZM40.9538 18.9917C40.3232 18.9917 39.7791 18.8525 39.3217 18.5741C38.8672 18.2928 38.5163 17.9008 38.2692 17.398C38.0249 16.8923 37.9027 16.3042 37.9027 15.6338C37.9027 14.9633 38.0249 14.3724 38.2692 13.861C38.5163 13.3468 38.8601 12.9463 39.3004 12.6593C39.7436 12.3696 40.2607 12.2247 40.8516 12.2247C41.1925 12.2247 41.5291 12.2815 41.8615 12.3951C42.1939 12.5088 42.4964 12.6934 42.7692 12.9491C43.0419 13.2019 43.2592 13.5372 43.4212 13.9548C43.5831 14.3724 43.6641 14.8866 43.6641 15.4974V15.9235H38.6186V15.0542H42.6413C42.6413 14.6849 42.5675 14.3553 42.4197 14.0656C42.2749 13.7758 42.0675 13.5471 41.7976 13.3795C41.5305 13.2119 41.2152 13.1281 40.8516 13.1281C40.451 13.1281 40.1044 13.2275 39.8118 13.4264C39.522 13.6224 39.299 13.8781 39.1428 14.1934C38.9865 14.5088 38.9084 14.8468 38.9084 15.2076V15.7872C38.9084 16.2815 38.9936 16.7005 39.1641 17.0443C39.3374 17.3852 39.5774 17.6451 39.8842 17.8241C40.1911 18.0002 40.5476 18.0883 40.9538 18.0883C41.218 18.0883 41.4567 18.0514 41.6697 17.9775C41.8857 17.9008 42.0717 17.7872 42.228 17.6366C42.3842 17.4832 42.505 17.2928 42.5902 17.0656L43.5618 17.3383C43.4595 17.6678 43.2876 17.9576 43.0462 18.2076C42.8047 18.4548 42.5064 18.648 42.1513 18.7872C41.7962 18.9235 41.397 18.9917 40.9538 18.9917ZM45.1939 18.8553V12.3099H46.1655V13.2985H46.2337C46.353 12.9747 46.5689 12.7119 46.8814 12.5102C47.1939 12.3085 47.5462 12.2076 47.9382 12.2076C48.0121 12.2076 48.1044 12.209 48.2152 12.2119C48.326 12.2147 48.4098 12.219 48.4666 12.2247V13.2474C48.4325 13.2389 48.3544 13.2261 48.2322 13.209C48.1129 13.1892 47.9865 13.1792 47.853 13.1792C47.5348 13.1792 47.2507 13.246 47.0007 13.3795C46.7536 13.5102 46.5575 13.692 46.4126 13.9249C46.2706 14.1551 46.1996 14.4178 46.1996 14.7133V18.8553H45.1939ZM50.6644 14.9178V18.8553H49.6587V12.3099H50.6303V13.3326H50.7156C50.869 13.0002 51.1019 12.7332 51.4144 12.5315C51.7269 12.3269 52.1303 12.2247 52.6246 12.2247C53.0678 12.2247 53.4556 12.3156 53.788 12.4974C54.1204 12.6764 54.3789 12.9491 54.5636 13.3156C54.7482 13.6792 54.8406 14.1394 54.8406 14.6963V18.8553H53.8349V14.7644C53.8349 14.2502 53.7013 13.8497 53.4343 13.5627C53.1673 13.273 52.8008 13.1281 52.3349 13.1281C52.0138 13.1281 51.7269 13.1977 51.4741 13.3369C51.2241 13.4761 51.0266 13.6792 50.8817 13.9463C50.7369 14.2133 50.6644 14.5372 50.6644 14.9178Z" fill="#412D3D"/>
<rect x="70.5" y="1.35535" width="48" height="27" rx="13.5" fill="white"/>
<rect x="70.5" y="1.35535" width="48" height="27" rx="13.5" stroke="#F5F3F2"/>
<path d="M83.0568 18.8553V10.1281H88.2898V11.0656H84.1136V14.0144H87.8977V14.9519H84.1136V18.8553H83.0568ZM91.8896 19.0088C91.4748 19.0088 91.0984 18.9306 90.7603 18.7744C90.4222 18.6153 90.1538 18.3866 89.9549 18.0883C89.756 17.7872 89.6566 17.4235 89.6566 16.9974C89.6566 16.6224 89.7305 16.3184 89.8782 16.0855C90.0259 15.8497 90.2234 15.665 90.4705 15.5315C90.7177 15.398 90.9904 15.2985 91.2887 15.2332C91.5898 15.165 91.8924 15.111 92.1964 15.0713C92.5941 15.0201 92.9165 14.9818 93.1637 14.9562C93.4137 14.9278 93.5955 14.8809 93.7092 14.8156C93.8256 14.7502 93.8839 14.6366 93.8839 14.4747V14.4406C93.8839 14.0201 93.7688 13.6934 93.5387 13.4605C93.3114 13.2275 92.9663 13.111 92.5032 13.111C92.0231 13.111 91.6467 13.2161 91.3739 13.4264C91.1012 13.6366 90.9094 13.861 90.7987 14.0997L89.8441 13.7588C90.0146 13.361 90.2418 13.0514 90.5259 12.8298C90.8129 12.6053 91.1254 12.4491 91.4634 12.361C91.8043 12.2701 92.1396 12.2247 92.4691 12.2247C92.6793 12.2247 92.9208 12.2502 93.1935 12.3014C93.4691 12.3497 93.7347 12.4505 93.9904 12.6039C94.2489 12.7573 94.4634 12.9889 94.6339 13.2985C94.8043 13.6082 94.8896 14.023 94.8896 14.5428V18.8553H93.8839V17.969H93.8327C93.7646 18.111 93.6509 18.263 93.4918 18.4249C93.3327 18.5869 93.1211 18.7247 92.8569 18.8383C92.5927 18.9519 92.2702 19.0088 91.8896 19.0088ZM92.043 18.1053C92.4407 18.1053 92.7759 18.0272 93.0487 17.871C93.3242 17.7147 93.5316 17.513 93.6708 17.2659C93.8129 17.0187 93.8839 16.7588 93.8839 16.486V15.5656C93.8413 15.6167 93.7475 15.6636 93.6026 15.7062C93.4606 15.746 93.2958 15.7815 93.1083 15.8127C92.9237 15.8411 92.7433 15.8667 92.5671 15.8894C92.3938 15.9093 92.2532 15.9264 92.1452 15.9406C91.8839 15.9747 91.6396 16.0301 91.4123 16.1068C91.1879 16.1806 91.006 16.2928 90.8668 16.4434C90.7305 16.5911 90.6623 16.7928 90.6623 17.0485C90.6623 17.398 90.7915 17.6622 91.0501 17.8411C91.3114 18.0173 91.6424 18.1053 92.043 18.1053ZM101.362 13.7758L100.458 14.0315C100.401 13.8809 100.317 13.7346 100.207 13.5926C100.099 13.4477 99.951 13.3284 99.7635 13.2346C99.576 13.1409 99.3359 13.094 99.0433 13.094C98.6428 13.094 98.3089 13.1863 98.0419 13.371C97.7777 13.5528 97.6456 13.7843 97.6456 14.0656C97.6456 14.3156 97.7365 14.513 97.9183 14.6579C98.1001 14.8028 98.3842 14.9235 98.7706 15.0201L99.7422 15.2588C100.327 15.4008 100.763 15.6181 101.05 15.9107C101.337 16.2005 101.481 16.5741 101.481 17.0315C101.481 17.4065 101.373 17.7417 101.157 18.0372C100.944 18.3326 100.646 18.5656 100.262 18.736C99.8786 18.9065 99.4325 18.9917 98.924 18.9917C98.2564 18.9917 97.7038 18.8468 97.2663 18.5571C96.8288 18.2673 96.5518 17.844 96.4354 17.2872L97.3899 17.0485C97.4808 17.4008 97.6527 17.665 97.9055 17.8411C98.1612 18.0173 98.495 18.1053 98.907 18.1053C99.3757 18.1053 99.7479 18.0059 100.023 17.8071C100.302 17.6053 100.441 17.3639 100.441 17.0826C100.441 16.8553 100.362 16.665 100.202 16.5116C100.043 16.3553 99.799 16.2389 99.4695 16.1622L98.3786 15.9065C97.7791 15.7644 97.3388 15.5443 97.0575 15.246C96.7791 14.9448 96.6399 14.5684 96.6399 14.1167C96.6399 13.7474 96.7436 13.4207 96.951 13.1366C97.1612 12.8525 97.4467 12.6295 97.8075 12.4676C98.1712 12.3056 98.5831 12.2247 99.0433 12.2247C99.6911 12.2247 100.2 12.3667 100.569 12.6508C100.941 12.9349 101.205 13.3099 101.362 13.7758ZM105.841 12.3099V13.1622H102.449V12.3099H105.841ZM103.438 10.7417H104.444V16.9803C104.444 17.2644 104.485 17.4775 104.567 17.6196C104.652 17.7588 104.76 17.8525 104.891 17.9008C105.025 17.9463 105.165 17.969 105.313 17.969C105.424 17.969 105.515 17.9633 105.586 17.9519C105.657 17.9377 105.713 17.9264 105.756 17.9178L105.961 18.8213C105.892 18.8468 105.797 18.8724 105.675 18.898C105.553 18.9264 105.398 18.9406 105.211 18.9406C104.926 18.9406 104.648 18.8795 104.375 18.7573C104.105 18.6352 103.881 18.4491 103.702 18.1991C103.526 17.9491 103.438 17.6338 103.438 17.2531V10.7417Z" fill="#412D3D"/>
<rect x="121.5" y="1.35535" width="78" height="27" rx="13.5" fill="white"/>
<rect x="121.5" y="1.35535" width="78" height="27" rx="13.5" stroke="#F5F3F2"/>
<path d="M138.83 12.3099C138.778 11.8781 138.571 11.5428 138.207 11.3042C137.844 11.0656 137.398 10.9463 136.869 10.9463C136.483 10.9463 136.145 11.0088 135.855 11.1338C135.568 11.2588 135.344 11.4306 135.182 11.6494C135.023 11.8681 134.943 12.1167 134.943 12.3951C134.943 12.6281 134.999 12.8284 135.109 12.996C135.223 13.1607 135.368 13.2985 135.544 13.4093C135.72 13.5173 135.905 13.6068 136.098 13.6778C136.291 13.746 136.469 13.8014 136.631 13.844L137.517 14.0826C137.744 14.1423 137.997 14.2247 138.276 14.3298C138.557 14.4349 138.825 14.5784 139.081 14.7602C139.339 14.9392 139.553 15.1693 139.72 15.4505C139.888 15.7318 139.972 16.0769 139.972 16.486C139.972 16.9576 139.848 17.3838 139.601 17.7644C139.357 18.1451 138.999 18.4477 138.527 18.6721C138.058 18.8965 137.489 19.0088 136.818 19.0088C136.193 19.0088 135.652 18.9079 135.195 18.7062C134.74 18.5045 134.382 18.2232 134.121 17.8624C133.862 17.5017 133.716 17.0826 133.682 16.6053H134.773C134.801 16.9349 134.912 17.2076 135.105 17.4235C135.301 17.6366 135.548 17.7957 135.847 17.9008C136.148 18.0031 136.472 18.0542 136.818 18.0542C137.222 18.0542 137.584 17.9889 137.905 17.8582C138.226 17.7247 138.48 17.54 138.668 17.3042C138.855 17.0656 138.949 16.7872 138.949 16.469C138.949 16.1792 138.868 15.9434 138.706 15.7616C138.544 15.5798 138.331 15.4321 138.067 15.3184C137.803 15.2048 137.517 15.1053 137.21 15.0201L136.136 14.7133C135.455 14.5173 134.915 14.2374 134.517 13.8738C134.119 13.5102 133.92 13.0343 133.92 12.4463C133.92 11.9576 134.053 11.5315 134.317 11.1678C134.584 10.8014 134.942 10.5173 135.391 10.3156C135.842 10.111 136.347 10.0088 136.903 10.0088C137.466 10.0088 137.966 10.1096 138.403 10.3113C138.841 10.5102 139.188 10.7829 139.443 11.1295C139.702 11.4761 139.838 11.8696 139.852 12.3099H138.83ZM144.232 18.9917C143.618 18.9917 143.09 18.8468 142.647 18.5571C142.203 18.2673 141.863 17.8681 141.624 17.3596C141.385 16.8511 141.266 16.2701 141.266 15.6167C141.266 14.9519 141.388 14.3653 141.632 13.8568C141.88 13.3454 142.223 12.9463 142.664 12.6593C143.107 12.3696 143.624 12.2247 144.215 12.2247C144.675 12.2247 145.09 12.3099 145.459 12.4803C145.828 12.6508 146.131 12.8894 146.367 13.1963C146.603 13.5031 146.749 13.861 146.806 14.2701H145.8C145.723 13.9718 145.553 13.7076 145.289 13.4775C145.027 13.2446 144.675 13.1281 144.232 13.1281C143.84 13.1281 143.496 13.2303 143.201 13.4349C142.908 13.6366 142.679 13.9221 142.515 14.2914C142.353 14.6579 142.272 15.0883 142.272 15.5826C142.272 16.0883 142.351 16.5286 142.51 16.9036C142.672 17.2786 142.9 17.5698 143.192 17.7772C143.488 17.9846 143.834 18.0883 144.232 18.0883C144.493 18.0883 144.73 18.0428 144.944 17.9519C145.157 17.861 145.337 17.7303 145.485 17.5599C145.632 17.3894 145.738 17.1849 145.8 16.9463H146.806C146.749 17.3326 146.608 17.6806 146.384 17.9903C146.162 18.2971 145.868 18.5414 145.502 18.7232C145.138 18.9022 144.715 18.9917 144.232 18.9917ZM150.202 19.0088C149.787 19.0088 149.411 18.9306 149.073 18.7744C148.735 18.6153 148.466 18.3866 148.267 18.0883C148.069 17.7872 147.969 17.4235 147.969 16.9974C147.969 16.6224 148.043 16.3184 148.191 16.0855C148.338 15.8497 148.536 15.665 148.783 15.5315C149.03 15.398 149.303 15.2985 149.601 15.2332C149.902 15.165 150.205 15.111 150.509 15.0713C150.907 15.0201 151.229 14.9818 151.476 14.9562C151.726 14.9278 151.908 14.8809 152.022 14.8156C152.138 14.7502 152.196 14.6366 152.196 14.4747V14.4406C152.196 14.0201 152.081 13.6934 151.851 13.4605C151.624 13.2275 151.279 13.111 150.816 13.111C150.336 13.111 149.959 13.2161 149.686 13.4264C149.414 13.6366 149.222 13.861 149.111 14.0997L148.157 13.7588C148.327 13.361 148.554 13.0514 148.838 12.8298C149.125 12.6053 149.438 12.4491 149.776 12.361C150.117 12.2701 150.452 12.2247 150.782 12.2247C150.992 12.2247 151.233 12.2502 151.506 12.3014C151.782 12.3497 152.047 12.4505 152.303 12.6039C152.561 12.7573 152.776 12.9889 152.946 13.2985C153.117 13.6082 153.202 14.023 153.202 14.5428V18.8553H152.196V17.969H152.145C152.077 18.111 151.963 18.263 151.804 18.4249C151.645 18.5869 151.434 18.7247 151.169 18.8383C150.905 18.9519 150.583 19.0088 150.202 19.0088ZM150.355 18.1053C150.753 18.1053 151.088 18.0272 151.361 17.871C151.637 17.7147 151.844 17.513 151.983 17.2659C152.125 17.0187 152.196 16.7588 152.196 16.486V15.5656C152.154 15.6167 152.06 15.6636 151.915 15.7062C151.773 15.746 151.608 15.7815 151.421 15.8127C151.236 15.8411 151.056 15.8667 150.88 15.8894C150.706 15.9093 150.566 15.9264 150.458 15.9406C150.196 15.9747 149.952 16.0301 149.725 16.1068C149.5 16.1806 149.319 16.2928 149.179 16.4434C149.043 16.5911 148.975 16.7928 148.975 17.0485C148.975 17.398 149.104 17.6622 149.363 17.8411C149.624 18.0173 149.955 18.1053 150.355 18.1053ZM156.043 10.1281V18.8553H155.038V10.1281H156.043ZM160.63 18.9917C159.999 18.9917 159.455 18.8525 158.998 18.5741C158.543 18.2928 158.192 17.9008 157.945 17.398C157.701 16.8923 157.578 16.3042 157.578 15.6338C157.578 14.9633 157.701 14.3724 157.945 13.861C158.192 13.3468 158.536 12.9463 158.976 12.6593C159.419 12.3696 159.936 12.2247 160.527 12.2247C160.868 12.2247 161.205 12.2815 161.537 12.3951C161.87 12.5088 162.172 12.6934 162.445 12.9491C162.718 13.2019 162.935 13.5372 163.097 13.9548C163.259 14.3724 163.34 14.8866 163.34 15.4974V15.9235H158.294V15.0542H162.317C162.317 14.6849 162.243 14.3553 162.096 14.0656C161.951 13.7758 161.743 13.5471 161.473 13.3795C161.206 13.2119 160.891 13.1281 160.527 13.1281C160.127 13.1281 159.78 13.2275 159.488 13.4264C159.198 13.6224 158.975 13.8781 158.819 14.1934C158.662 14.5088 158.584 14.8468 158.584 15.2076V15.7872C158.584 16.2815 158.669 16.7005 158.84 17.0443C159.013 17.3852 159.253 17.6451 159.56 17.8241C159.867 18.0002 160.223 18.0883 160.63 18.0883C160.894 18.0883 161.132 18.0514 161.346 17.9775C161.561 17.9008 161.748 17.7872 161.904 17.6366C162.06 17.4832 162.181 17.2928 162.266 17.0656L163.238 17.3383C163.135 17.6678 162.963 17.9576 162.722 18.2076C162.48 18.4548 162.182 18.648 161.827 18.7872C161.472 18.9235 161.073 18.9917 160.63 18.9917ZM166.796 19.0088C166.381 19.0088 166.005 18.9306 165.667 18.7744C165.328 18.6153 165.06 18.3866 164.861 18.0883C164.662 17.7872 164.563 17.4235 164.563 16.9974C164.563 16.6224 164.637 16.3184 164.784 16.0855C164.932 15.8497 165.13 15.665 165.377 15.5315C165.624 15.398 165.897 15.2985 166.195 15.2332C166.496 15.165 166.799 15.111 167.103 15.0713C167.5 15.0201 167.823 14.9818 168.07 14.9562C168.32 14.9278 168.502 14.8809 168.615 14.8156C168.732 14.7502 168.79 14.6366 168.79 14.4747V14.4406C168.79 14.0201 168.675 13.6934 168.445 13.4605C168.218 13.2275 167.873 13.111 167.409 13.111C166.929 13.111 166.553 13.2161 166.28 13.4264C166.007 13.6366 165.816 13.861 165.705 14.0997L164.75 13.7588C164.921 13.361 165.148 13.0514 165.432 12.8298C165.719 12.6053 166.032 12.4491 166.37 12.361C166.711 12.2701 167.046 12.2247 167.375 12.2247C167.586 12.2247 167.827 12.2502 168.1 12.3014C168.375 12.3497 168.641 12.4505 168.897 12.6039C169.155 12.7573 169.37 12.9889 169.54 13.2985C169.711 13.6082 169.796 14.023 169.796 14.5428V18.8553H168.79V17.969H168.739C168.671 18.111 168.557 18.263 168.398 18.4249C168.239 18.5869 168.027 18.7247 167.763 18.8383C167.499 18.9519 167.176 19.0088 166.796 19.0088ZM166.949 18.1053C167.347 18.1053 167.682 18.0272 167.955 17.871C168.23 17.7147 168.438 17.513 168.577 17.2659C168.719 17.0187 168.79 16.7588 168.79 16.486V15.5656C168.748 15.6167 168.654 15.6636 168.509 15.7062C168.367 15.746 168.202 15.7815 168.015 15.8127C167.83 15.8411 167.65 15.8667 167.473 15.8894C167.3 15.9093 167.159 15.9264 167.051 15.9406C166.79 15.9747 166.546 16.0301 166.319 16.1068C166.094 16.1806 165.912 16.2928 165.773 16.4434C165.637 16.5911 165.569 16.7928 165.569 17.0485C165.569 17.398 165.698 17.6622 165.956 17.8411C166.218 18.0173 166.549 18.1053 166.949 18.1053ZM171.768 18.8553V10.1281H172.773V13.3497H172.859C172.933 13.236 173.035 13.0911 173.165 12.915C173.299 12.736 173.489 12.5769 173.737 12.4377C173.987 12.2957 174.325 12.2247 174.751 12.2247C175.302 12.2247 175.788 12.3624 176.208 12.638C176.629 12.9136 176.957 13.3042 177.192 13.8099C177.428 14.3156 177.546 14.9122 177.546 15.5997C177.546 16.2928 177.428 16.8937 177.192 17.4022C176.957 17.9079 176.63 18.2999 176.212 18.5784C175.795 18.8539 175.313 18.9917 174.768 18.9917C174.347 18.9917 174.011 18.9221 173.758 18.7829C173.505 18.6409 173.31 18.4803 173.174 18.3014C173.038 18.1196 172.933 17.969 172.859 17.8497H172.739V18.8553H171.768ZM172.756 15.5826C172.756 16.0769 172.829 16.513 172.974 16.8909C173.119 17.2659 173.33 17.5599 173.609 17.773C173.887 17.9832 174.228 18.0883 174.631 18.0883C175.052 18.0883 175.403 17.9775 175.684 17.7559C175.968 17.5315 176.181 17.2303 176.323 16.8525C176.468 16.4718 176.54 16.0485 176.54 15.5826C176.54 15.1224 176.469 14.7076 176.327 14.3383C176.188 13.9661 175.977 13.6721 175.692 13.4562C175.411 13.2374 175.058 13.1281 174.631 13.1281C174.222 13.1281 173.879 13.2318 173.6 13.4392C173.322 13.6437 173.112 13.9306 172.969 14.2999C172.827 14.6664 172.756 15.094 172.756 15.5826ZM180.09 10.1281V18.8553H179.085V10.1281H180.09ZM184.676 18.9917C184.046 18.9917 183.502 18.8525 183.044 18.5741C182.59 18.2928 182.239 17.9008 181.992 17.398C181.748 16.8923 181.625 16.3042 181.625 15.6338C181.625 14.9633 181.748 14.3724 181.992 13.861C182.239 13.3468 182.583 12.9463 183.023 12.6593C183.466 12.3696 183.983 12.2247 184.574 12.2247C184.915 12.2247 185.252 12.2815 185.584 12.3951C185.917 12.5088 186.219 12.6934 186.492 12.9491C186.765 13.2019 186.982 13.5372 187.144 13.9548C187.306 14.3724 187.387 14.8866 187.387 15.4974V15.9235H182.341V15.0542H186.364C186.364 14.6849 186.29 14.3553 186.142 14.0656C185.998 13.7758 185.79 13.5471 185.52 13.3795C185.253 13.2119 184.938 13.1281 184.574 13.1281C184.174 13.1281 183.827 13.2275 183.534 13.4264C183.245 13.6224 183.022 13.8781 182.865 14.1934C182.709 14.5088 182.631 14.8468 182.631 15.2076V15.7872C182.631 16.2815 182.716 16.7005 182.887 17.0443C183.06 17.3852 183.3 17.6451 183.607 17.8241C183.914 18.0002 184.27 18.0883 184.676 18.0883C184.941 18.0883 185.179 18.0514 185.392 17.9775C185.608 17.9008 185.794 17.7872 185.951 17.6366C186.107 17.4832 186.228 17.2928 186.313 17.0656L187.284 17.3383C187.182 17.6678 187.01 17.9576 186.769 18.2076C186.527 18.4548 186.229 18.648 185.874 18.7872C185.519 18.9235 185.12 18.9917 184.676 18.9917Z" fill="#412D3D"/>
<rect y="30.8553" width="124" height="28" rx="14" fill="#4339F2"/>
<path d="M20.0795 42.8553H19.0227C18.9602 42.5514 18.8509 42.2843 18.6946 42.0542C18.5412 41.8241 18.3537 41.6309 18.1321 41.4747C17.9134 41.3156 17.6705 41.1963 17.4034 41.1167C17.1364 41.0372 16.858 40.9974 16.5682 40.9974C16.0398 40.9974 15.5611 41.1309 15.1321 41.398C14.706 41.665 14.3665 42.0585 14.1136 42.5784C13.8636 43.0982 13.7386 43.736 13.7386 44.4917C13.7386 45.2474 13.8636 45.8852 14.1136 46.4051C14.3665 46.9249 14.706 47.3184 15.1321 47.5855C15.5611 47.8525 16.0398 47.986 16.5682 47.986C16.858 47.986 17.1364 47.9463 17.4034 47.8667C17.6705 47.7872 17.9134 47.6693 18.1321 47.513C18.3537 47.3539 18.5412 47.1593 18.6946 46.9292C18.8509 46.6963 18.9602 46.4292 19.0227 46.1281H20.0795C20 46.5741 19.8551 46.9732 19.6449 47.3255C19.4347 47.6778 19.1733 47.9775 18.8608 48.2247C18.5483 48.469 18.1974 48.6551 17.8082 48.7829C17.4219 48.9107 17.0085 48.9747 16.5682 48.9747C15.8239 48.9747 15.1619 48.7928 14.5824 48.4292C14.0028 48.0656 13.5469 47.5485 13.2145 46.8781C12.8821 46.2076 12.7159 45.4122 12.7159 44.4917C12.7159 43.5713 12.8821 42.7758 13.2145 42.1053C13.5469 41.4349 14.0028 40.9178 14.5824 40.5542C15.1619 40.1906 15.8239 40.0088 16.5682 40.0088C17.0085 40.0088 17.4219 40.0727 17.8082 40.2005C18.1974 40.3284 18.5483 40.5159 18.8608 40.763C19.1733 41.0073 19.4347 41.3056 19.6449 41.6579C19.8551 42.0073 20 42.4065 20.0795 42.8553ZM25.7759 46.1792V42.3099H26.7816V48.8553H25.7759V47.7474H25.7077C25.5543 48.0798 25.3157 48.3624 24.9918 48.5954C24.668 48.8255 24.2589 48.9406 23.7646 48.9406C23.3555 48.9406 22.9918 48.8511 22.6737 48.6721C22.3555 48.4903 22.1055 48.2176 21.9237 47.8539C21.7418 47.4874 21.6509 47.0258 21.6509 46.469V42.3099H22.6566V46.4008C22.6566 46.8781 22.7901 47.2588 23.0572 47.5428C23.3271 47.8269 23.6708 47.969 24.0884 47.969C24.3384 47.969 24.5927 47.9051 24.8512 47.7772C25.1126 47.6494 25.3313 47.4534 25.5075 47.1892C25.6864 46.9249 25.7759 46.5883 25.7759 46.1792ZM33.2599 43.7758L32.3565 44.0315C32.2997 43.8809 32.2159 43.7346 32.1051 43.5926C31.9972 43.4477 31.8494 43.3284 31.6619 43.2346C31.4744 43.1409 31.2344 43.094 30.9418 43.094C30.5412 43.094 30.2074 43.1863 29.9403 43.371C29.6761 43.5528 29.544 43.7843 29.544 44.0656C29.544 44.3156 29.6349 44.513 29.8168 44.6579C29.9986 44.8028 30.2827 44.9235 30.669 45.0201L31.6406 45.2588C32.2259 45.4008 32.6619 45.6181 32.9489 45.9107C33.2358 46.2005 33.3793 46.5741 33.3793 47.0315C33.3793 47.4065 33.2713 47.7417 33.0554 48.0372C32.8423 48.3326 32.544 48.5656 32.1605 48.736C31.777 48.9065 31.331 48.9917 30.8224 48.9917C30.1548 48.9917 29.6023 48.8468 29.1648 48.5571C28.7273 48.2673 28.4503 47.844 28.3338 47.2872L29.2884 47.0485C29.3793 47.4008 29.5511 47.665 29.804 47.8411C30.0597 48.0173 30.3935 48.1053 30.8054 48.1053C31.2741 48.1053 31.6463 48.0059 31.9219 47.8071C32.2003 47.6053 32.3395 47.3639 32.3395 47.0826C32.3395 46.8553 32.2599 46.665 32.1009 46.5116C31.9418 46.3553 31.6974 46.2389 31.3679 46.1622L30.277 45.9065C29.6776 45.7644 29.2372 45.5443 28.956 45.246C28.6776 44.9448 28.5384 44.5684 28.5384 44.1167C28.5384 43.7474 28.642 43.4207 28.8494 43.1366C29.0597 42.8525 29.3452 42.6295 29.706 42.4676C30.0696 42.3056 30.4815 42.2247 30.9418 42.2247C31.5895 42.2247 32.098 42.3667 32.4673 42.6508C32.8395 42.9349 33.1037 43.3099 33.2599 43.7758ZM37.7397 42.3099V43.1622H34.3477V42.3099H37.7397ZM35.3363 40.7417H36.342V46.9803C36.342 47.2644 36.3832 47.4775 36.4656 47.6196C36.5508 47.7588 36.6587 47.8525 36.7894 47.9008C36.9229 47.9463 37.0636 47.969 37.2113 47.969C37.3221 47.969 37.413 47.9633 37.484 47.9519C37.555 47.9377 37.6119 47.9264 37.6545 47.9178L37.859 48.8213C37.7908 48.8468 37.6957 48.8724 37.5735 48.898C37.4513 48.9264 37.2965 48.9406 37.109 48.9406C36.8249 48.9406 36.5465 48.8795 36.2738 48.7573C36.0039 48.6352 35.7795 48.4491 35.6005 48.1991C35.4244 47.9491 35.3363 47.6338 35.3363 47.2531V40.7417ZM41.8413 48.9917C41.2504 48.9917 40.7319 48.8511 40.2859 48.5698C39.8427 48.2886 39.4961 47.8951 39.2461 47.3894C38.9989 46.8838 38.8754 46.2928 38.8754 45.6167C38.8754 44.9349 38.9989 44.3397 39.2461 43.8312C39.4961 43.3227 39.8427 42.9278 40.2859 42.6465C40.7319 42.3653 41.2504 42.2247 41.8413 42.2247C42.4322 42.2247 42.9492 42.3653 43.3924 42.6465C43.8384 42.9278 44.185 43.3227 44.4322 43.8312C44.6822 44.3397 44.8072 44.9349 44.8072 45.6167C44.8072 46.2928 44.6822 46.8838 44.4322 47.3894C44.185 47.8951 43.8384 48.2886 43.3924 48.5698C42.9492 48.8511 42.4322 48.9917 41.8413 48.9917ZM41.8413 48.0883C42.2901 48.0883 42.6594 47.9732 42.9492 47.7431C43.239 47.513 43.4535 47.2105 43.5927 46.8355C43.7319 46.4605 43.8015 46.0542 43.8015 45.6167C43.8015 45.1792 43.7319 44.7715 43.5927 44.3937C43.4535 44.0159 43.239 43.7105 42.9492 43.4775C42.6594 43.2446 42.2901 43.1281 41.8413 43.1281C41.3924 43.1281 41.0231 43.2446 40.7333 43.4775C40.4435 43.7105 40.229 44.0159 40.0898 44.3937C39.9506 44.7715 39.881 45.1792 39.881 45.6167C39.881 46.0542 39.9506 46.4605 40.0898 46.8355C40.229 47.2105 40.4435 47.513 40.7333 47.7431C41.0231 47.9732 41.3924 48.0883 41.8413 48.0883ZM46.3423 48.8553V42.3099H47.3139V43.3326H47.3991C47.5355 42.9832 47.7557 42.7119 48.0597 42.5187C48.3636 42.3227 48.7287 42.2247 49.1548 42.2247C49.5866 42.2247 49.946 42.3227 50.233 42.5187C50.5227 42.7119 50.7486 42.9832 50.9105 43.3326H50.9787C51.1463 42.9946 51.3977 42.7261 51.733 42.5272C52.0682 42.3255 52.4702 42.2247 52.9389 42.2247C53.5241 42.2247 54.0028 42.4079 54.375 42.7744C54.7472 43.138 54.9332 43.7048 54.9332 44.4747V48.8553H53.9276V44.4747C53.9276 43.9917 53.7955 43.6465 53.5312 43.4392C53.267 43.2318 52.956 43.1281 52.598 43.1281C52.1378 43.1281 51.7813 43.2673 51.5284 43.5457C51.2756 43.8213 51.1491 44.1707 51.1491 44.594V48.8553H50.1264V44.3724C50.1264 44.0002 50.0057 43.7005 49.7642 43.4732C49.5227 43.2431 49.2116 43.1281 48.831 43.1281C48.5696 43.1281 48.3253 43.1977 48.098 43.3369C47.8736 43.4761 47.6918 43.6693 47.5526 43.9164C47.4162 44.1607 47.348 44.4434 47.348 44.7644V48.8553H46.3423ZM59.5163 48.9917C58.8857 48.9917 58.3416 48.8525 57.8842 48.5741C57.4297 48.2928 57.0788 47.9008 56.8317 47.398C56.5874 46.8923 56.4652 46.3042 56.4652 45.6338C56.4652 44.9633 56.5874 44.3724 56.8317 43.861C57.0788 43.3468 57.4226 42.9463 57.8629 42.6593C58.3061 42.3696 58.8232 42.2247 59.4141 42.2247C59.755 42.2247 60.0916 42.2815 60.424 42.3951C60.7564 42.5088 61.0589 42.6934 61.3317 42.9491C61.6044 43.2019 61.8217 43.5372 61.9837 43.9548C62.1456 44.3724 62.2266 44.8866 62.2266 45.4974V45.9235H57.1811V45.0542H61.2038C61.2038 44.6849 61.13 44.3553 60.9822 44.0656C60.8374 43.7758 60.63 43.5471 60.3601 43.3795C60.093 43.2119 59.7777 43.1281 59.4141 43.1281C59.0135 43.1281 58.6669 43.2275 58.3743 43.4264C58.0845 43.6224 57.8615 43.8781 57.7053 44.1934C57.549 44.5088 57.4709 44.8468 57.4709 45.2076V45.7872C57.4709 46.2815 57.5561 46.7005 57.7266 47.0443C57.8999 47.3852 58.1399 47.6451 58.4467 47.8241C58.7536 48.0002 59.1101 48.0883 59.5163 48.0883C59.7805 48.0883 60.0192 48.0514 60.2322 47.9775C60.4482 47.9008 60.6342 47.7872 60.7905 47.6366C60.9467 47.4832 61.0675 47.2928 61.1527 47.0656L62.1243 47.3383C62.022 47.6678 61.8501 47.9576 61.6087 48.2076C61.3672 48.4548 61.0689 48.648 60.7138 48.7872C60.3587 48.9235 59.9595 48.9917 59.5163 48.9917ZM63.7564 48.8553V42.3099H64.728V43.2985H64.7962C64.9155 42.9747 65.1314 42.7119 65.4439 42.5102C65.7564 42.3085 66.1087 42.2076 66.5007 42.2076C66.5746 42.2076 66.6669 42.209 66.7777 42.2119C66.8885 42.2147 66.9723 42.219 67.0291 42.2247V43.2474C66.995 43.2389 66.9169 43.2261 66.7947 43.209C66.6754 43.1892 66.549 43.1792 66.4155 43.1792C66.0973 43.1792 65.8132 43.246 65.5632 43.3795C65.3161 43.5102 65.12 43.692 64.9751 43.9249C64.8331 44.1551 64.7621 44.4178 64.7621 44.7133V48.8553H63.7564ZM71.4908 44.6451V45.5826H67.6726V44.6451H71.4908ZM75.9194 48.9917C75.3058 48.9917 74.7773 48.8468 74.3342 48.5571C73.891 48.2673 73.5501 47.8681 73.3114 47.3596C73.0728 46.8511 72.9535 46.2701 72.9535 45.6167C72.9535 44.9519 73.0756 44.3653 73.32 43.8568C73.5671 43.3454 73.9109 42.9463 74.3512 42.6593C74.7944 42.3696 75.3114 42.2247 75.9023 42.2247C76.3626 42.2247 76.7773 42.3099 77.1467 42.4803C77.516 42.6508 77.8185 42.8894 78.0543 43.1963C78.2901 43.5031 78.4364 43.861 78.4933 44.2701H77.4876C77.4109 43.9718 77.2404 43.7076 76.9762 43.4775C76.7148 43.2446 76.3626 43.1281 75.9194 43.1281C75.5273 43.1281 75.1836 43.2303 74.8881 43.4349C74.5955 43.6366 74.3668 43.9221 74.2021 44.2914C74.0401 44.6579 73.9592 45.0883 73.9592 45.5826C73.9592 46.0883 74.0387 46.5286 74.1978 46.9036C74.3597 47.2786 74.587 47.5698 74.8796 47.7772C75.1751 47.9846 75.5217 48.0883 75.9194 48.0883C76.1808 48.0883 76.418 48.0428 76.631 47.9519C76.8441 47.861 77.0245 47.7303 77.1722 47.5599C77.32 47.3894 77.4251 47.1849 77.4876 46.9463H78.4933C78.4364 47.3326 78.2958 47.6806 78.0714 47.9903C77.8498 48.2971 77.5558 48.5414 77.1893 48.7232C76.8256 48.9022 76.4023 48.9917 75.9194 48.9917ZM82.7077 48.9917C82.0771 48.9917 81.533 48.8525 81.0756 48.5741C80.6211 48.2928 80.2702 47.9008 80.0231 47.398C79.7788 46.8923 79.6566 46.3042 79.6566 45.6338C79.6566 44.9633 79.7788 44.3724 80.0231 43.861C80.2702 43.3468 80.614 42.9463 81.0543 42.6593C81.4975 42.3696 82.0146 42.2247 82.6055 42.2247C82.9464 42.2247 83.283 42.2815 83.6154 42.3951C83.9478 42.5088 84.2504 42.6934 84.5231 42.9491C84.7958 43.2019 85.0131 43.5372 85.1751 43.9548C85.337 44.3724 85.418 44.8866 85.418 45.4974V45.9235H80.3725V45.0542H84.3952C84.3952 44.6849 84.3214 44.3553 84.1737 44.0656C84.0288 43.7758 83.8214 43.5471 83.5515 43.3795C83.2844 43.2119 82.9691 43.1281 82.6055 43.1281C82.2049 43.1281 81.8583 43.2275 81.5657 43.4264C81.2759 43.6224 81.0529 43.8781 80.8967 44.1934C80.7404 44.5088 80.6623 44.8468 80.6623 45.2076V45.7872C80.6623 46.2815 80.7475 46.7005 80.918 47.0443C81.0913 47.3852 81.3313 47.6451 81.6381 47.8241C81.945 48.0002 82.3015 48.0883 82.7077 48.0883C82.9719 48.0883 83.2106 48.0514 83.4237 47.9775C83.6396 47.9008 83.8256 47.7872 83.9819 47.6366C84.1381 47.4832 84.2589 47.2928 84.3441 47.0656L85.3157 47.3383C85.2134 47.6678 85.0415 47.9576 84.8001 48.2076C84.5586 48.4548 84.2603 48.648 83.9052 48.7872C83.5501 48.9235 83.1509 48.9917 82.7077 48.9917ZM87.9535 44.9178V48.8553H86.9478V42.3099H87.9194V43.3326H88.0046C88.158 43.0002 88.391 42.7332 88.7035 42.5315C89.016 42.3269 89.4194 42.2247 89.9137 42.2247C90.3569 42.2247 90.7447 42.3156 91.0771 42.4974C91.4094 42.6764 91.668 42.9491 91.8526 43.3156C92.0373 43.6792 92.1296 44.1394 92.1296 44.6963V48.8553H91.1239V44.7644C91.1239 44.2502 90.9904 43.8497 90.7234 43.5627C90.4563 43.273 90.0898 43.1281 89.6239 43.1281C89.3029 43.1281 89.016 43.1977 88.7631 43.3369C88.5131 43.4761 88.3157 43.6792 88.1708 43.9463C88.0259 44.2133 87.9535 44.5372 87.9535 44.9178ZM96.8139 42.3099V43.1622H93.4219V42.3099H96.8139ZM94.4105 40.7417H95.4162V46.9803C95.4162 47.2644 95.4574 47.4775 95.5398 47.6196C95.625 47.7588 95.733 47.8525 95.8636 47.9008C95.9972 47.9463 96.1378 47.969 96.2855 47.969C96.3963 47.969 96.4872 47.9633 96.5582 47.9519C96.6293 47.9377 96.6861 47.9264 96.7287 47.9178L96.9332 48.8213C96.8651 48.8468 96.7699 48.8724 96.6477 48.898C96.5256 48.9264 96.3707 48.9406 96.1832 48.9406C95.8991 48.9406 95.6207 48.8795 95.348 48.7573C95.0781 48.6352 94.8537 48.4491 94.6747 48.1991C94.4986 47.9491 94.4105 47.6338 94.4105 47.2531V40.7417ZM98.3267 48.8553V42.3099H99.2983V43.2985H99.3665C99.4858 42.9747 99.7017 42.7119 100.014 42.5102C100.327 42.3085 100.679 42.2076 101.071 42.2076C101.145 42.2076 101.237 42.209 101.348 42.2119C101.459 42.2147 101.543 42.219 101.599 42.2247V43.2474C101.565 43.2389 101.487 43.2261 101.365 43.209C101.246 43.1892 101.119 43.1792 100.986 43.1792C100.668 43.1792 100.384 43.246 100.134 43.3795C99.8864 43.5102 99.6903 43.692 99.5455 43.9249C99.4034 44.1551 99.3324 44.4178 99.3324 44.7133V48.8553H98.3267ZM102.792 48.8553V42.3099H103.797V48.8553H102.792ZM103.303 41.219C103.107 41.219 102.938 41.1522 102.796 41.0187C102.657 40.8852 102.587 40.7247 102.587 40.5372C102.587 40.3497 102.657 40.1892 102.796 40.0556C102.938 39.9221 103.107 39.8553 103.303 39.8553C103.499 39.8553 103.667 39.9221 103.806 40.0556C103.948 40.1892 104.019 40.3497 104.019 40.5372C104.019 40.7247 103.948 40.8852 103.806 41.0187C103.667 41.1522 103.499 41.219 103.303 41.219ZM108.298 48.9917C107.685 48.9917 107.156 48.8468 106.713 48.5571C106.27 48.2673 105.929 47.8681 105.69 47.3596C105.452 46.8511 105.332 46.2701 105.332 45.6167C105.332 44.9519 105.455 44.3653 105.699 43.8568C105.946 43.3454 106.29 42.9463 106.73 42.6593C107.173 42.3696 107.69 42.2247 108.281 42.2247C108.741 42.2247 109.156 42.3099 109.526 42.4803C109.895 42.6508 110.197 42.8894 110.433 43.1963C110.669 43.5031 110.815 43.861 110.872 44.2701H109.866C109.79 43.9718 109.619 43.7076 109.355 43.4775C109.094 43.2446 108.741 43.1281 108.298 43.1281C107.906 43.1281 107.563 43.2303 107.267 43.4349C106.974 43.6366 106.746 43.9221 106.581 44.2914C106.419 44.6579 106.338 45.0883 106.338 45.5826C106.338 46.0883 106.418 46.5286 106.577 46.9036C106.739 47.2786 106.966 47.5698 107.259 47.7772C107.554 47.9846 107.901 48.0883 108.298 48.0883C108.56 48.0883 108.797 48.0428 109.01 47.9519C109.223 47.861 109.403 47.7303 109.551 47.5599C109.699 47.3894 109.804 47.1849 109.866 46.9463H110.872C110.815 47.3326 110.675 47.6806 110.45 47.9903C110.229 48.2971 109.935 48.5414 109.568 48.7232C109.205 48.9022 108.781 48.9917 108.298 48.9917Z" fill="#F5F3F2"/>
<rect x="126.5" y="31.3553" width="88" height="27" rx="13.5" fill="white"/>
<rect x="126.5" y="31.3553" width="88" height="27" rx="13.5" stroke="#F5F3F2"/>
<path d="M146.08 42.8553H145.023C144.96 42.5514 144.851 42.2843 144.695 42.0542C144.541 41.8241 144.354 41.6309 144.132 41.4747C143.913 41.3156 143.67 41.1963 143.403 41.1167C143.136 41.0372 142.858 40.9974 142.568 40.9974C142.04 40.9974 141.561 41.1309 141.132 41.398C140.706 41.665 140.366 42.0585 140.114 42.5784C139.864 43.0982 139.739 43.736 139.739 44.4917C139.739 45.2474 139.864 45.8852 140.114 46.4051C140.366 46.9249 140.706 47.3184 141.132 47.5855C141.561 47.8525 142.04 47.986 142.568 47.986C142.858 47.986 143.136 47.9463 143.403 47.8667C143.67 47.7872 143.913 47.6693 144.132 47.513C144.354 47.3539 144.541 47.1593 144.695 46.9292C144.851 46.6963 144.96 46.4292 145.023 46.1281H146.08C146 46.5741 145.855 46.9732 145.645 47.3255C145.435 47.6778 145.173 47.9775 144.861 48.2247C144.548 48.469 144.197 48.6551 143.808 48.7829C143.422 48.9107 143.009 48.9747 142.568 48.9747C141.824 48.9747 141.162 48.7928 140.582 48.4292C140.003 48.0656 139.547 47.5485 139.214 46.8781C138.882 46.2076 138.716 45.4122 138.716 44.4917C138.716 43.5713 138.882 42.7758 139.214 42.1053C139.547 41.4349 140.003 40.9178 140.582 40.5542C141.162 40.1906 141.824 40.0088 142.568 40.0088C143.009 40.0088 143.422 40.0727 143.808 40.2005C144.197 40.3284 144.548 40.5159 144.861 40.763C145.173 41.0073 145.435 41.3056 145.645 41.6579C145.855 42.0073 146 42.4065 146.08 42.8553ZM147.787 48.8553V40.1281H150.736C151.418 40.1281 151.978 40.2446 152.415 40.4775C152.853 40.7076 153.176 41.0244 153.387 41.4278C153.597 41.8312 153.702 42.29 153.702 42.8042C153.702 43.3184 153.597 43.7744 153.387 44.1721C153.176 44.5698 152.854 44.8823 152.419 45.1096C151.985 45.334 151.429 45.4463 150.753 45.4463H148.367V44.4917H150.719C151.185 44.4917 151.56 44.4235 151.844 44.2872C152.131 44.1508 152.338 43.9576 152.466 43.7076C152.597 43.4548 152.662 43.1536 152.662 42.8042C152.662 42.4548 152.597 42.1494 152.466 41.888C152.336 41.6267 152.127 41.4249 151.84 41.2829C151.553 41.138 151.174 41.0656 150.702 41.0656H148.844V48.8553H147.787ZM151.895 44.9349L154.043 48.8553H152.816L150.702 44.9349H151.895ZM155.463 40.1281H156.724L159.69 47.3724H159.793L162.759 40.1281H164.02V48.8553H163.031V42.2247H162.946L160.219 48.8553H159.264L156.537 42.2247H156.452V48.8553H155.463V40.1281ZM169.752 44.6451V45.5826H165.934V44.6451H169.752ZM171.522 48.8553V42.3099H172.494V43.2985H172.562C172.681 42.9747 172.897 42.7119 173.21 42.5102C173.522 42.3085 173.874 42.2076 174.266 42.2076C174.34 42.2076 174.433 42.209 174.543 42.2119C174.654 42.2147 174.738 42.219 174.795 42.2247V43.2474C174.761 43.2389 174.683 43.2261 174.56 43.209C174.441 43.1892 174.315 43.1792 174.181 43.1792C173.863 43.1792 173.579 43.246 173.329 43.3795C173.082 43.5102 172.886 43.692 172.741 43.9249C172.599 44.1551 172.528 44.4178 172.528 44.7133V48.8553H171.522ZM178.532 48.9917C177.901 48.9917 177.357 48.8525 176.9 48.5741C176.445 48.2928 176.094 47.9008 175.847 47.398C175.603 46.8923 175.481 46.3042 175.481 45.6338C175.481 44.9633 175.603 44.3724 175.847 43.861C176.094 43.3468 176.438 42.9463 176.879 42.6593C177.322 42.3696 177.839 42.2247 178.43 42.2247C178.771 42.2247 179.107 42.2815 179.44 42.3951C179.772 42.5088 180.075 42.6934 180.347 42.9491C180.62 43.2019 180.837 43.5372 180.999 43.9548C181.161 44.3724 181.242 44.8866 181.242 45.4974V45.9235H176.197V45.0542H180.219C180.219 44.6849 180.146 44.3553 179.998 44.0656C179.853 43.7758 179.646 43.5471 179.376 43.3795C179.109 43.2119 178.793 43.1281 178.43 43.1281C178.029 43.1281 177.683 43.2275 177.39 43.4264C177.1 43.6224 176.877 43.8781 176.721 44.1934C176.565 44.5088 176.487 44.8468 176.487 45.2076V45.7872C176.487 46.2815 176.572 46.7005 176.742 47.0443C176.915 47.3852 177.156 47.6451 177.462 47.8241C177.769 48.0002 178.126 48.0883 178.532 48.0883C178.796 48.0883 179.035 48.0514 179.248 47.9775C179.464 47.9008 179.65 47.7872 179.806 47.6366C179.962 47.4832 180.083 47.2928 180.168 47.0656L181.14 47.3383C181.038 47.6678 180.866 47.9576 180.624 48.2076C180.383 48.4548 180.085 48.648 179.729 48.7872C179.374 48.9235 178.975 48.9917 178.532 48.9917ZM184.698 49.0088C184.283 49.0088 183.907 48.9306 183.569 48.7744C183.231 48.6153 182.962 48.3866 182.763 48.0883C182.565 47.7872 182.465 47.4235 182.465 46.9974C182.465 46.6224 182.539 46.3184 182.687 46.0855C182.835 45.8497 183.032 45.665 183.279 45.5315C183.526 45.398 183.799 45.2985 184.097 45.2332C184.398 45.165 184.701 45.111 185.005 45.0713C185.403 45.0201 185.725 44.9818 185.972 44.9562C186.222 44.9278 186.404 44.8809 186.518 44.8156C186.634 44.7502 186.692 44.6366 186.692 44.4747V44.4406C186.692 44.0201 186.577 43.6934 186.347 43.4605C186.12 43.2275 185.775 43.111 185.312 43.111C184.832 43.111 184.455 43.2161 184.183 43.4264C183.91 43.6366 183.718 43.861 183.607 44.0997L182.653 43.7588C182.823 43.361 183.05 43.0514 183.335 42.8298C183.621 42.6053 183.934 42.4491 184.272 42.361C184.613 42.2701 184.948 42.2247 185.278 42.2247C185.488 42.2247 185.729 42.2502 186.002 42.3014C186.278 42.3497 186.543 42.4505 186.799 42.6039C187.058 42.7573 187.272 42.9889 187.442 43.2985C187.613 43.6082 187.698 44.023 187.698 44.5428V48.8553H186.692V47.969H186.641C186.573 48.111 186.46 48.263 186.3 48.4249C186.141 48.5869 185.93 48.7247 185.665 48.8383C185.401 48.9519 185.079 49.0088 184.698 49.0088ZM184.852 48.1053C185.249 48.1053 185.585 48.0272 185.857 47.871C186.133 47.7147 186.34 47.513 186.479 47.2659C186.621 47.0187 186.692 46.7588 186.692 46.486V45.5656C186.65 45.6167 186.556 45.6636 186.411 45.7062C186.269 45.746 186.104 45.7815 185.917 45.8127C185.732 45.8411 185.552 45.8667 185.376 45.8894C185.202 45.9093 185.062 45.9264 184.954 45.9406C184.692 45.9747 184.448 46.0301 184.221 46.1068C183.996 46.1806 183.815 46.2928 183.675 46.4434C183.539 46.5911 183.471 46.7928 183.471 47.0485C183.471 47.398 183.6 47.6622 183.859 47.8411C184.12 48.0173 184.451 48.1053 184.852 48.1053ZM192.005 48.9917C191.46 48.9917 190.978 48.8539 190.561 48.5784C190.143 48.2999 189.816 47.9079 189.581 47.4022C189.345 46.8937 189.227 46.2928 189.227 45.5997C189.227 44.9122 189.345 44.3156 189.581 43.8099C189.816 43.3042 190.145 42.9136 190.565 42.638C190.985 42.3624 191.471 42.2247 192.022 42.2247C192.449 42.2247 192.785 42.2957 193.032 42.4377C193.282 42.5769 193.473 42.736 193.603 42.915C193.737 43.0911 193.841 43.236 193.914 43.3497H194V40.1281H195.005V48.8553H194.034V47.8497H193.914C193.841 47.969 193.735 48.1196 193.599 48.3014C193.463 48.4803 193.268 48.6409 193.015 48.7829C192.762 48.9221 192.426 48.9917 192.005 48.9917ZM192.142 48.0883C192.545 48.0883 192.886 47.9832 193.164 47.773C193.443 47.5599 193.654 47.2659 193.799 46.8909C193.944 46.513 194.017 46.0769 194.017 45.5826C194.017 45.094 193.946 44.6664 193.804 44.2999C193.662 43.9306 193.451 43.6437 193.173 43.4392C192.895 43.2318 192.551 43.1281 192.142 43.1281C191.716 43.1281 191.36 43.2374 191.076 43.4562C190.795 43.6721 190.583 43.9661 190.441 44.3383C190.302 44.7076 190.233 45.1224 190.233 45.5826C190.233 46.0485 190.304 46.4718 190.446 46.8525C190.591 47.2303 190.804 47.5315 191.085 47.7559C191.369 47.9775 191.721 48.0883 192.142 48.0883ZM197.635 51.3099C197.464 51.3099 197.312 51.2957 197.179 51.2673C197.045 51.2417 196.953 51.2161 196.902 51.1906L197.157 50.3042C197.402 50.3667 197.618 50.3894 197.805 50.3724C197.993 50.3553 198.159 50.2715 198.304 50.121C198.451 49.9732 198.586 49.7332 198.708 49.4008L198.896 48.8894L196.475 42.3099H197.566L199.373 47.5258H199.441L201.248 42.3099H202.339L199.561 49.8099C199.436 50.148 199.281 50.4278 199.096 50.6494C198.912 50.8738 198.697 51.04 198.453 51.148C198.211 51.2559 197.939 51.3099 197.635 51.3099Z" fill="#412D3D"/>
<rect x="0.5" y="61.3553" width="91" height="27" rx="13.5" fill="white"/>
<rect x="0.5" y="61.3553" width="91" height="27" rx="13.5" stroke="#F5F3F2"/>
<path d="M14.1136 70.1281V78.8553H13.0568V70.1281H14.1136ZM17.1019 74.9178V78.8553H16.0962V72.3099H17.0678V73.3326H17.1531C17.3065 73.0002 17.5394 72.7332 17.8519 72.5315C18.1644 72.3269 18.5678 72.2247 19.0621 72.2247C19.5053 72.2247 19.8931 72.3156 20.2255 72.4974C20.5579 72.6764 20.8164 72.9491 21.0011 73.3156C21.1857 73.6792 21.2781 74.1394 21.2781 74.6963V78.8553H20.2724V74.7644C20.2724 74.2502 20.1388 73.8497 19.8718 73.5627C19.6048 73.273 19.2383 73.1281 18.7724 73.1281C18.4513 73.1281 18.1644 73.1977 17.9116 73.3369C17.6616 73.4761 17.4641 73.6792 17.3192 73.9463C17.1744 74.2133 17.1019 74.5372 17.1019 74.9178ZM25.9624 72.3099V73.1622H22.5703V72.3099H25.9624ZM23.5589 70.7417H24.5646V76.9803C24.5646 77.2644 24.6058 77.4775 24.6882 77.6196C24.7734 77.7588 24.8814 77.8525 25.0121 77.9008C25.1456 77.9463 25.2862 77.969 25.4339 77.969C25.5447 77.969 25.6357 77.9633 25.7067 77.9519C25.7777 77.9377 25.8345 77.9264 25.8771 77.9178L26.0817 78.8213C26.0135 78.8468 25.9183 78.8724 25.7962 78.898C25.674 78.9264 25.5192 78.9406 25.3317 78.9406C25.0476 78.9406 24.7692 78.8795 24.4964 78.7573C24.2266 78.6352 24.0021 78.4491 23.8232 78.1991C23.647 77.9491 23.5589 77.6338 23.5589 77.2531V70.7417ZM30.1491 78.9917C29.5185 78.9917 28.9744 78.8525 28.517 78.5741C28.0625 78.2928 27.7116 77.9008 27.4645 77.398C27.2202 76.8923 27.098 76.3042 27.098 75.6338C27.098 74.9633 27.2202 74.3724 27.4645 73.861C27.7116 73.3468 28.0554 72.9463 28.4957 72.6593C28.9389 72.3696 29.456 72.2247 30.0469 72.2247C30.3878 72.2247 30.7244 72.2815 31.0568 72.3951C31.3892 72.5088 31.6918 72.6934 31.9645 72.9491C32.2372 73.2019 32.4545 73.5372 32.6165 73.9548C32.7784 74.3724 32.8594 74.8866 32.8594 75.4974V75.9235H27.8139V75.0542H31.8366C31.8366 74.6849 31.7628 74.3553 31.6151 74.0656C31.4702 73.7758 31.2628 73.5471 30.9929 73.3795C30.7259 73.2119 30.4105 73.1281 30.0469 73.1281C29.6463 73.1281 29.2997 73.2275 29.0071 73.4264C28.7173 73.6224 28.4943 73.8781 28.3381 74.1934C28.1818 74.5088 28.1037 74.8468 28.1037 75.2076V75.7872C28.1037 76.2815 28.1889 76.7005 28.3594 77.0443C28.5327 77.3852 28.7727 77.6451 29.0795 77.8241C29.3864 78.0002 29.7429 78.0883 30.1491 78.0883C30.4134 78.0883 30.652 78.0514 30.8651 77.9775C31.081 77.9008 31.267 77.7872 31.4233 77.6366C31.5795 77.4832 31.7003 77.2928 31.7855 77.0656L32.7571 77.3383C32.6548 77.6678 32.483 77.9576 32.2415 78.2076C32 78.4548 31.7017 78.648 31.3466 78.7872C30.9915 78.9235 30.5923 78.9917 30.1491 78.9917ZM37.0312 81.4463C36.5455 81.4463 36.1278 81.3838 35.7784 81.2588C35.429 81.1366 35.1378 80.9747 34.9048 80.773C34.6747 80.5741 34.4915 80.361 34.3551 80.1338L35.1562 79.5713C35.2472 79.6906 35.3622 79.8269 35.5014 79.9803C35.6406 80.1366 35.831 80.2715 36.0724 80.3852C36.3168 80.5017 36.6364 80.5599 37.0312 80.5599C37.5597 80.5599 37.9957 80.4321 38.3395 80.1764C38.6832 79.9207 38.8551 79.5201 38.8551 78.9747V77.6451H38.7699C38.696 77.7644 38.5909 77.9122 38.4545 78.0883C38.321 78.2616 38.1278 78.4164 37.875 78.5528C37.625 78.6863 37.2869 78.7531 36.8608 78.7531C36.3324 78.7531 35.858 78.6281 35.4375 78.3781C35.0199 78.1281 34.6889 77.7644 34.4446 77.2872C34.2031 76.8099 34.0824 76.2303 34.0824 75.5485C34.0824 74.8781 34.2003 74.2943 34.4361 73.7971C34.6719 73.2971 35 72.9107 35.4205 72.638C35.8409 72.3624 36.3267 72.2247 36.8778 72.2247C37.304 72.2247 37.642 72.2957 37.892 72.4377C38.1449 72.5769 38.3381 72.736 38.4716 72.915C38.608 73.0911 38.7131 73.236 38.7869 73.3497H38.8892V72.3099H39.8608V79.0428C39.8608 79.6053 39.733 80.0627 39.4773 80.415C39.2244 80.7701 38.8835 81.0301 38.4545 81.1948C38.0284 81.3624 37.554 81.4463 37.0312 81.4463ZM36.9972 77.8497C37.4006 77.8497 37.7415 77.7573 38.0199 77.5727C38.2983 77.388 38.5099 77.1224 38.6548 76.7758C38.7997 76.4292 38.8722 76.0144 38.8722 75.5315C38.8722 75.0599 38.8011 74.6437 38.6591 74.2829C38.517 73.9221 38.3068 73.6394 38.0284 73.4349C37.75 73.2303 37.4063 73.1281 36.9972 73.1281C36.571 73.1281 36.2159 73.236 35.9318 73.4519C35.6506 73.6678 35.4389 73.9576 35.2969 74.3213C35.1577 74.6849 35.0881 75.0883 35.0881 75.5315C35.0881 75.986 35.1591 76.388 35.3011 76.7374C35.446 77.084 35.6591 77.3568 35.9403 77.5556C36.2244 77.7517 36.5767 77.8497 36.9972 77.8497ZM41.7017 78.8553V72.3099H42.6733V73.2985H42.7415C42.8608 72.9747 43.0767 72.7119 43.3892 72.5102C43.7017 72.3085 44.054 72.2076 44.446 72.2076C44.5199 72.2076 44.6122 72.209 44.723 72.2119C44.8338 72.2147 44.9176 72.219 44.9744 72.2247V73.2474C44.9403 73.2389 44.8622 73.2261 44.7401 73.209C44.6207 73.1892 44.4943 73.1792 44.3608 73.1792C44.0426 73.1792 43.7585 73.246 43.5085 73.3795C43.2614 73.5102 43.0653 73.692 42.9205 73.9249C42.7784 74.1551 42.7074 74.4178 42.7074 74.7133V78.8553H41.7017ZM48.0927 79.0088C47.6779 79.0088 47.3015 78.9306 46.9634 78.7744C46.6254 78.6153 46.3569 78.3866 46.158 78.0883C45.9592 77.7872 45.8597 77.4235 45.8597 76.9974C45.8597 76.6224 45.9336 76.3184 46.0813 76.0855C46.229 75.8497 46.4265 75.665 46.6737 75.5315C46.9208 75.398 47.1935 75.2985 47.4918 75.2332C47.793 75.165 48.0955 75.111 48.3995 75.0713C48.7972 75.0201 49.1197 74.9818 49.3668 74.9562C49.6168 74.9278 49.7987 74.8809 49.9123 74.8156C50.0288 74.7502 50.087 74.6366 50.087 74.4747V74.4406C50.087 74.0201 49.9719 73.6934 49.7418 73.4605C49.5146 73.2275 49.1694 73.111 48.7063 73.111C48.2262 73.111 47.8498 73.2161 47.5771 73.4264C47.3043 73.6366 47.1126 73.861 47.0018 74.0997L46.0472 73.7588C46.2177 73.361 46.445 73.0514 46.729 72.8298C47.016 72.6053 47.3285 72.4491 47.6665 72.361C48.0075 72.2701 48.3427 72.2247 48.6722 72.2247C48.8825 72.2247 49.1239 72.2502 49.3967 72.3014C49.6722 72.3497 49.9379 72.4505 50.1935 72.6039C50.4521 72.7573 50.6665 72.9889 50.837 73.2985C51.0075 73.6082 51.0927 74.023 51.0927 74.5428V78.8553H50.087V77.969H50.0359C49.9677 78.111 49.854 78.263 49.695 78.4249C49.5359 78.5869 49.3242 78.7247 49.06 78.8383C48.7958 78.9519 48.4734 79.0088 48.0927 79.0088ZM48.2461 78.1053C48.6438 78.1053 48.979 78.0272 49.2518 77.871C49.5273 77.7147 49.7347 77.513 49.8739 77.2659C50.016 77.0187 50.087 76.7588 50.087 76.486V75.5656C50.0444 75.6167 49.9506 75.6636 49.8058 75.7062C49.6637 75.746 49.4989 75.7815 49.3114 75.8127C49.1268 75.8411 48.9464 75.8667 48.7702 75.8894C48.5969 75.9093 48.4563 75.9264 48.3484 75.9406C48.087 75.9747 47.8427 76.0301 47.6154 76.1068C47.391 76.1806 47.2092 76.2928 47.07 76.4434C46.9336 76.5911 46.8654 76.7928 46.8654 77.0485C46.8654 77.398 46.9947 77.6622 47.2532 77.8411C47.5146 78.0173 47.8455 78.1053 48.2461 78.1053ZM55.7749 72.3099V73.1622H52.3828V72.3099H55.7749ZM53.3714 70.7417H54.3771V76.9803C54.3771 77.2644 54.4183 77.4775 54.5007 77.6196C54.5859 77.7588 54.6939 77.8525 54.8246 77.9008C54.9581 77.9463 55.0987 77.969 55.2464 77.969C55.3572 77.969 55.4482 77.9633 55.5192 77.9519C55.5902 77.9377 55.647 77.9264 55.6896 77.9178L55.8942 78.8213C55.826 78.8468 55.7308 78.8724 55.6087 78.898C55.4865 78.9264 55.3317 78.9406 55.1442 78.9406C54.8601 78.9406 54.5817 78.8795 54.3089 78.7573C54.0391 78.6352 53.8146 78.4491 53.6357 78.1991C53.4595 77.9491 53.3714 77.6338 53.3714 77.2531V70.7417ZM57.2876 78.8553V72.3099H58.2933V78.8553H57.2876ZM57.799 71.219C57.603 71.219 57.4339 71.1522 57.2919 71.0187C57.1527 70.8852 57.0831 70.7247 57.0831 70.5372C57.0831 70.3497 57.1527 70.1892 57.2919 70.0556C57.4339 69.9221 57.603 69.8553 57.799 69.8553C57.995 69.8553 58.1626 69.9221 58.3018 70.0556C58.4439 70.1892 58.5149 70.3497 58.5149 70.5372C58.5149 70.7247 58.4439 70.8852 58.3018 71.0187C58.1626 71.1522 57.995 71.219 57.799 71.219ZM62.7944 78.9917C62.2035 78.9917 61.685 78.8511 61.239 78.5698C60.7958 78.2886 60.4492 77.8951 60.1992 77.3894C59.9521 76.8838 59.8285 76.2928 59.8285 75.6167C59.8285 74.9349 59.9521 74.3397 60.1992 73.8312C60.4492 73.3227 60.7958 72.9278 61.239 72.6465C61.685 72.3653 62.2035 72.2247 62.7944 72.2247C63.3853 72.2247 63.9023 72.3653 64.3455 72.6465C64.7915 72.9278 65.1381 73.3227 65.3853 73.8312C65.6353 74.3397 65.7603 74.9349 65.7603 75.6167C65.7603 76.2928 65.6353 76.8838 65.3853 77.3894C65.1381 77.8951 64.7915 78.2886 64.3455 78.5698C63.9023 78.8511 63.3853 78.9917 62.7944 78.9917ZM62.7944 78.0883C63.2433 78.0883 63.6126 77.9732 63.9023 77.7431C64.1921 77.513 64.4066 77.2105 64.5458 76.8355C64.685 76.4605 64.7546 76.0542 64.7546 75.6167C64.7546 75.1792 64.685 74.7715 64.5458 74.3937C64.4066 74.0159 64.1921 73.7105 63.9023 73.4775C63.6126 73.2446 63.2433 73.1281 62.7944 73.1281C62.3455 73.1281 61.9762 73.2446 61.6864 73.4775C61.3967 73.7105 61.1822 74.0159 61.043 74.3937C60.9038 74.7715 60.8342 75.1792 60.8342 75.6167C60.8342 76.0542 60.9038 76.4605 61.043 76.8355C61.1822 77.2105 61.3967 77.513 61.6864 77.7431C61.9762 77.9732 62.3455 78.0883 62.7944 78.0883ZM68.3011 74.9178V78.8553H67.2955V72.3099H68.267V73.3326H68.3523C68.5057 73.0002 68.7386 72.7332 69.0511 72.5315C69.3636 72.3269 69.767 72.2247 70.2614 72.2247C70.7045 72.2247 71.0923 72.3156 71.4247 72.4974C71.7571 72.6764 72.0156 72.9491 72.2003 73.3156C72.3849 73.6792 72.4773 74.1394 72.4773 74.6963V78.8553H71.4716V74.7644C71.4716 74.2502 71.3381 73.8497 71.071 73.5627C70.804 73.273 70.4375 73.1281 69.9716 73.1281C69.6506 73.1281 69.3636 73.1977 69.1108 73.3369C68.8608 73.4761 68.6634 73.6792 68.5185 73.9463C68.3736 74.2133 68.3011 74.5372 68.3011 74.9178ZM78.9513 73.7758L78.0479 74.0315C77.9911 73.8809 77.9073 73.7346 77.7965 73.5926C77.6886 73.4477 77.5408 73.3284 77.3533 73.2346C77.1658 73.1409 76.9258 73.094 76.6332 73.094C76.2326 73.094 75.8988 73.1863 75.6317 73.371C75.3675 73.5528 75.2354 73.7843 75.2354 74.0656C75.2354 74.3156 75.3263 74.513 75.5082 74.6579C75.69 74.8028 75.9741 74.9235 76.3604 75.0201L77.332 75.2588C77.9173 75.4008 78.3533 75.6181 78.6403 75.9107C78.9272 76.2005 79.0707 76.5741 79.0707 77.0315C79.0707 77.4065 78.9627 77.7417 78.7468 78.0372C78.5337 78.3326 78.2354 78.5656 77.8519 78.736C77.4684 78.9065 77.0224 78.9917 76.5138 78.9917C75.8462 78.9917 75.2937 78.8468 74.8562 78.5571C74.4187 78.2673 74.1417 77.844 74.0252 77.2872L74.9798 77.0485C75.0707 77.4008 75.2425 77.665 75.4954 77.8411C75.7511 78.0173 76.0849 78.1053 76.4968 78.1053C76.9656 78.1053 77.3377 78.0059 77.6133 77.8071C77.8917 77.6053 78.0309 77.3639 78.0309 77.0826C78.0309 76.8553 77.9513 76.665 77.7923 76.5116C77.6332 76.3553 77.3888 76.2389 77.0593 76.1622L75.9684 75.9065C75.369 75.7644 74.9286 75.5443 74.6474 75.246C74.369 74.9448 74.2298 74.5684 74.2298 74.1167C74.2298 73.7474 74.3335 73.4207 74.5408 73.1366C74.7511 72.8525 75.0366 72.6295 75.3974 72.4676C75.761 72.3056 76.1729 72.2247 76.6332 72.2247C77.2809 72.2247 77.7894 72.3667 78.1587 72.6508C78.5309 72.9349 78.7951 73.3099 78.9513 73.7758Z" fill="#412D3D"/>
<rect x="94.5" y="61.3553" width="103" height="27" rx="13.5" fill="white"/>
<rect x="94.5" y="61.3553" width="103" height="27" rx="13.5" stroke="#F5F3F2"/>
<path d="M107.057 78.8553V70.1281H108.114V77.9178H112.17V78.8553H107.057ZM113.67 78.8553V72.3099H114.676V78.8553H113.67ZM114.182 71.219C113.986 71.219 113.817 71.1522 113.675 71.0187C113.536 70.8852 113.466 70.7247 113.466 70.5372C113.466 70.3497 113.536 70.1892 113.675 70.0556C113.817 69.9221 113.986 69.8553 114.182 69.8553C114.378 69.8553 114.545 69.9221 114.685 70.0556C114.827 70.1892 114.898 70.3497 114.898 70.5372C114.898 70.7247 114.827 70.8852 114.685 71.0187C114.545 71.1522 114.378 71.219 114.182 71.219ZM119.16 81.4463C118.674 81.4463 118.257 81.3838 117.907 81.2588C117.558 81.1366 117.267 80.9747 117.034 80.773C116.804 80.5741 116.62 80.361 116.484 80.1338L117.285 79.5713C117.376 79.6906 117.491 79.8269 117.63 79.9803C117.77 80.1366 117.96 80.2715 118.201 80.3852C118.446 80.5017 118.765 80.5599 119.16 80.5599C119.689 80.5599 120.125 80.4321 120.468 80.1764C120.812 79.9207 120.984 79.5201 120.984 78.9747V77.6451H120.899C120.825 77.7644 120.72 77.9122 120.583 78.0883C120.45 78.2616 120.257 78.4164 120.004 78.5528C119.754 78.6863 119.416 78.7531 118.99 78.7531C118.461 78.7531 117.987 78.6281 117.566 78.3781C117.149 78.1281 116.818 77.7644 116.574 77.2872C116.332 76.8099 116.211 76.2303 116.211 75.5485C116.211 74.8781 116.329 74.2943 116.565 73.7971C116.801 73.2971 117.129 72.9107 117.549 72.638C117.97 72.3624 118.456 72.2247 119.007 72.2247C119.433 72.2247 119.771 72.2957 120.021 72.4377C120.274 72.5769 120.467 72.736 120.6 72.915C120.737 73.0911 120.842 73.236 120.916 73.3497H121.018V72.3099H121.99V79.0428C121.99 79.6053 121.862 80.0627 121.606 80.415C121.353 80.7701 121.012 81.0301 120.583 81.1948C120.157 81.3624 119.683 81.4463 119.16 81.4463ZM119.126 77.8497C119.529 77.8497 119.87 77.7573 120.149 77.5727C120.427 77.388 120.639 77.1224 120.784 76.7758C120.929 76.4292 121.001 76.0144 121.001 75.5315C121.001 75.0599 120.93 74.6437 120.788 74.2829C120.646 73.9221 120.436 73.6394 120.157 73.4349C119.879 73.2303 119.535 73.1281 119.126 73.1281C118.7 73.1281 118.345 73.236 118.061 73.4519C117.779 73.6678 117.568 73.9576 117.426 74.3213C117.287 74.6849 117.217 75.0883 117.217 75.5315C117.217 75.986 117.288 76.388 117.43 76.7374C117.575 77.084 117.788 77.3568 118.069 77.5556C118.353 77.7517 118.706 77.8497 119.126 77.8497ZM124.836 74.9178V78.8553H123.831V70.1281H124.836V73.3326H124.922C125.075 72.9946 125.305 72.7261 125.612 72.5272C125.922 72.3255 126.333 72.2247 126.848 72.2247C127.294 72.2247 127.684 72.3142 128.02 72.4931C128.355 72.6693 128.615 72.9406 128.799 73.3071C128.987 73.6707 129.081 74.1338 129.081 74.6963V78.8553H128.075V74.7644C128.075 74.2446 127.94 73.8426 127.67 73.5585C127.403 73.2715 127.032 73.1281 126.558 73.1281C126.228 73.1281 125.933 73.1977 125.672 73.3369C125.413 73.4761 125.208 73.6792 125.058 73.9463C124.91 74.2133 124.836 74.5372 124.836 74.9178ZM133.767 72.3099V73.1622H130.375V72.3099H133.767ZM131.364 70.7417H132.369V76.9803C132.369 77.2644 132.411 77.4775 132.493 77.6196C132.578 77.7588 132.686 77.8525 132.817 77.9008C132.95 77.9463 133.091 77.969 133.239 77.969C133.349 77.969 133.44 77.9633 133.511 77.9519C133.582 77.9377 133.639 77.9264 133.682 77.9178L133.886 78.8213C133.818 78.8468 133.723 78.8724 133.601 78.898C133.479 78.9264 133.324 78.9406 133.136 78.9406C132.852 78.9406 132.574 78.8795 132.301 78.7573C132.031 78.6352 131.807 78.4491 131.628 78.1991C131.452 77.9491 131.364 77.6338 131.364 77.2531V70.7417ZM136.286 74.9178V78.8553H135.28V72.3099H136.251V73.3326H136.337C136.49 73.0002 136.723 72.7332 137.036 72.5315C137.348 72.3269 137.751 72.2247 138.246 72.2247C138.689 72.2247 139.077 72.3156 139.409 72.4974C139.741 72.6764 140 72.9491 140.185 73.3156C140.369 73.6792 140.462 74.1394 140.462 74.6963V78.8553H139.456V74.7644C139.456 74.2502 139.322 73.8497 139.055 73.5627C138.788 73.273 138.422 73.1281 137.956 73.1281C137.635 73.1281 137.348 73.1977 137.095 73.3369C136.845 73.4761 136.648 73.6792 136.503 73.9463C136.358 74.2133 136.286 74.5372 136.286 74.9178ZM142.299 78.8553V72.3099H143.305V78.8553H142.299ZM142.811 71.219C142.615 71.219 142.446 71.1522 142.304 71.0187C142.164 70.8852 142.095 70.7247 142.095 70.5372C142.095 70.3497 142.164 70.1892 142.304 70.0556C142.446 69.9221 142.615 69.8553 142.811 69.8553C143.007 69.8553 143.174 69.9221 143.314 70.0556C143.456 70.1892 143.527 70.3497 143.527 70.5372C143.527 70.7247 143.456 70.8852 143.314 71.0187C143.174 71.1522 143.007 71.219 142.811 71.219ZM146.153 74.9178V78.8553H145.147V72.3099H146.119V73.3326H146.204C146.357 73.0002 146.59 72.7332 146.903 72.5315C147.215 72.3269 147.619 72.2247 148.113 72.2247C148.556 72.2247 148.944 72.3156 149.276 72.4974C149.609 72.6764 149.867 72.9491 150.052 73.3156C150.237 73.6792 150.329 74.1394 150.329 74.6963V78.8553H149.323V74.7644C149.323 74.2502 149.19 73.8497 148.923 73.5627C148.656 73.273 148.289 73.1281 147.823 73.1281C147.502 73.1281 147.215 73.1977 146.962 73.3369C146.712 73.4761 146.515 73.6792 146.37 73.9463C146.225 74.2133 146.153 74.5372 146.153 74.9178ZM154.809 81.4463C154.323 81.4463 153.905 81.3838 153.556 81.2588C153.206 81.1366 152.915 80.9747 152.682 80.773C152.452 80.5741 152.269 80.361 152.132 80.1338L152.934 79.5713C153.025 79.6906 153.14 79.8269 153.279 79.9803C153.418 80.1366 153.608 80.2715 153.85 80.3852C154.094 80.5017 154.414 80.5599 154.809 80.5599C155.337 80.5599 155.773 80.4321 156.117 80.1764C156.461 79.9207 156.632 79.5201 156.632 78.9747V77.6451H156.547C156.473 77.7644 156.368 77.9122 156.232 78.0883C156.098 78.2616 155.905 78.4164 155.652 78.5528C155.402 78.6863 155.064 78.7531 154.638 78.7531C154.11 78.7531 153.635 78.6281 153.215 78.3781C152.797 78.1281 152.466 77.7644 152.222 77.2872C151.98 76.8099 151.86 76.2303 151.86 75.5485C151.86 74.8781 151.978 74.2943 152.213 73.7971C152.449 73.2971 152.777 72.9107 153.198 72.638C153.618 72.3624 154.104 72.2247 154.655 72.2247C155.081 72.2247 155.419 72.2957 155.669 72.4377C155.922 72.5769 156.115 72.736 156.249 72.915C156.385 73.0911 156.49 73.236 156.564 73.3497H156.667V72.3099H157.638V79.0428C157.638 79.6053 157.51 80.0627 157.255 80.415C157.002 80.7701 156.661 81.0301 156.232 81.1948C155.806 81.3624 155.331 81.4463 154.809 81.4463ZM154.775 77.8497C155.178 77.8497 155.519 77.7573 155.797 77.5727C156.076 77.388 156.287 77.1224 156.432 76.7758C156.577 76.4292 156.65 76.0144 156.65 75.5315C156.65 75.0599 156.578 74.6437 156.436 74.2829C156.294 73.9221 156.084 73.6394 155.806 73.4349C155.527 73.2303 155.184 73.1281 154.775 73.1281C154.348 73.1281 153.993 73.236 153.709 73.4519C153.428 73.6678 153.216 73.9576 153.074 74.3213C152.935 74.6849 152.865 75.0883 152.865 75.5315C152.865 75.986 152.936 76.388 153.078 76.7374C153.223 77.084 153.436 77.3568 153.718 77.5556C154.002 77.7517 154.354 77.8497 154.775 77.8497ZM163.229 74.6451V75.5826H159.411V74.6451H163.229ZM167.913 72.3099V73.1622H164.385V72.3099H167.913ZM165.442 78.8553V71.4065C165.442 71.0315 165.53 70.719 165.706 70.469C165.882 70.219 166.111 70.0315 166.392 69.9065C166.673 69.7815 166.97 69.719 167.283 69.719C167.53 69.719 167.732 69.7389 167.888 69.7786C168.044 69.8184 168.161 69.8553 168.237 69.8894L167.947 70.7588C167.896 70.7417 167.825 70.7204 167.734 70.6948C167.646 70.6693 167.53 70.6565 167.385 70.6565C167.053 70.6565 166.813 70.7403 166.665 70.9079C166.52 71.0755 166.447 71.3213 166.447 71.6451V78.8553H165.442ZM171.061 79.0088C170.647 79.0088 170.27 78.9306 169.932 78.7744C169.594 78.6153 169.326 78.3866 169.127 78.0883C168.928 77.7872 168.828 77.4235 168.828 76.9974C168.828 76.6224 168.902 76.3184 169.05 76.0855C169.198 75.8497 169.395 75.665 169.642 75.5315C169.89 75.398 170.162 75.2985 170.461 75.2332C170.762 75.165 171.064 75.111 171.368 75.0713C171.766 75.0201 172.088 74.9818 172.336 74.9562C172.586 74.9278 172.767 74.8809 172.881 74.8156C172.998 74.7502 173.056 74.6366 173.056 74.4747V74.4406C173.056 74.0201 172.941 73.6934 172.711 73.4605C172.483 73.2275 172.138 73.111 171.675 73.111C171.195 73.111 170.819 73.2161 170.546 73.4264C170.273 73.6366 170.081 73.861 169.971 74.0997L169.016 73.7588C169.186 73.361 169.414 73.0514 169.698 72.8298C169.985 72.6053 170.297 72.4491 170.635 72.361C170.976 72.2701 171.311 72.2247 171.641 72.2247C171.851 72.2247 172.093 72.2502 172.365 72.3014C172.641 72.3497 172.907 72.4505 173.162 72.6039C173.421 72.7573 173.635 72.9889 173.806 73.2985C173.976 73.6082 174.061 74.023 174.061 74.5428V78.8553H173.056V77.969H173.005C172.936 78.111 172.823 78.263 172.664 78.4249C172.505 78.5869 172.293 78.7247 172.029 78.8383C171.765 78.9519 171.442 79.0088 171.061 79.0088ZM171.215 78.1053C171.613 78.1053 171.948 78.0272 172.221 77.871C172.496 77.7147 172.703 77.513 172.843 77.2659C172.985 77.0187 173.056 76.7588 173.056 76.486V75.5656C173.013 75.6167 172.919 75.6636 172.775 75.7062C172.632 75.746 172.468 75.7815 172.28 75.8127C172.096 75.8411 171.915 75.8667 171.739 75.8894C171.566 75.9093 171.425 75.9264 171.317 75.9406C171.056 75.9747 170.811 76.0301 170.584 76.1068C170.36 76.1806 170.178 76.2928 170.039 76.4434C169.902 76.5911 169.834 76.7928 169.834 77.0485C169.834 77.398 169.963 77.6622 170.222 77.8411C170.483 78.0173 170.814 78.1053 171.215 78.1053ZM180.533 73.7758L179.63 74.0315C179.573 73.8809 179.489 73.7346 179.379 73.5926C179.271 73.4477 179.123 73.3284 178.935 73.2346C178.748 73.1409 178.508 73.094 178.215 73.094C177.815 73.094 177.481 73.1863 177.214 73.371C176.95 73.5528 176.817 73.7843 176.817 74.0656C176.817 74.3156 176.908 74.513 177.09 74.6579C177.272 74.8028 177.556 74.9235 177.942 75.0201L178.914 75.2588C179.499 75.4008 179.935 75.6181 180.222 75.9107C180.509 76.2005 180.653 76.5741 180.653 77.0315C180.653 77.4065 180.545 77.7417 180.329 78.0372C180.116 78.3326 179.817 78.5656 179.434 78.736C179.05 78.9065 178.604 78.9917 178.096 78.9917C177.428 78.9917 176.876 78.8468 176.438 78.5571C176.001 78.2673 175.724 77.844 175.607 77.2872L176.562 77.0485C176.653 77.4008 176.825 77.665 177.077 77.8411C177.333 78.0173 177.667 78.1053 178.079 78.1053C178.548 78.1053 178.92 78.0059 179.195 77.8071C179.474 77.6053 179.613 77.3639 179.613 77.0826C179.613 76.8553 179.533 76.665 179.374 76.5116C179.215 76.3553 178.971 76.2389 178.641 76.1622L177.55 75.9065C176.951 75.7644 176.511 75.5443 176.229 75.246C175.951 74.9448 175.812 74.5684 175.812 74.1167C175.812 73.7474 175.915 73.4207 176.123 73.1366C176.333 72.8525 176.619 72.6295 176.979 72.4676C177.343 72.3056 177.755 72.2247 178.215 72.2247C178.863 72.2247 179.371 72.3667 179.741 72.6508C180.113 72.9349 180.377 73.3099 180.533 73.7758ZM185.013 72.3099V73.1622H181.621V72.3099H185.013ZM182.61 70.7417H183.615V76.9803C183.615 77.2644 183.657 77.4775 183.739 77.6196C183.824 77.7588 183.932 77.8525 184.063 77.9008C184.196 77.9463 184.337 77.969 184.485 77.969C184.596 77.969 184.686 77.9633 184.757 77.9519C184.828 77.9377 184.885 77.9264 184.928 77.9178L185.132 78.8213C185.064 78.8468 184.969 78.8724 184.847 78.898C184.725 78.9264 184.57 78.9406 184.382 78.9406C184.098 78.9406 183.82 78.8795 183.547 78.7573C183.277 78.6352 183.053 78.4491 182.874 78.1991C182.698 77.9491 182.61 77.6338 182.61 77.2531V70.7417Z" fill="#412D3D"/>
<rect x="0.5" y="91.3553" width="109" height="27" rx="13.5" fill="white"/>
<rect x="0.5" y="91.3553" width="109" height="27" rx="13.5" stroke="#F5F3F2"/>
<path d="M17.8295 102.31C17.7784 101.878 17.571 101.543 17.2074 101.304C16.8438 101.066 16.3977 100.946 15.8693 100.946C15.483 100.946 15.1449 101.009 14.8551 101.134C14.5682 101.259 14.3438 101.431 14.1818 101.649C14.0227 101.868 13.9432 102.117 13.9432 102.395C13.9432 102.628 13.9986 102.828 14.1094 102.996C14.223 103.161 14.3679 103.299 14.544 103.409C14.7202 103.517 14.9048 103.607 15.098 103.678C15.2912 103.746 15.4688 103.801 15.6307 103.844L16.517 104.083C16.7443 104.142 16.9972 104.225 17.2756 104.33C17.5568 104.435 17.8253 104.578 18.081 104.76C18.3395 104.939 18.5526 105.169 18.7202 105.451C18.8878 105.732 18.9716 106.077 18.9716 106.486C18.9716 106.958 18.848 107.384 18.6009 107.764C18.3565 108.145 17.9986 108.448 17.527 108.672C17.0582 108.897 16.4886 109.009 15.8182 109.009C15.1932 109.009 14.652 108.908 14.1946 108.706C13.7401 108.504 13.3821 108.223 13.1207 107.862C12.8622 107.502 12.7159 107.083 12.6818 106.605H13.7727C13.8011 106.935 13.9119 107.208 14.1051 107.424C14.3011 107.637 14.5483 107.796 14.8466 107.901C15.1477 108.003 15.4716 108.054 15.8182 108.054C16.2216 108.054 16.5838 107.989 16.9048 107.858C17.2259 107.725 17.4801 107.54 17.6676 107.304C17.8551 107.066 17.9489 106.787 17.9489 106.469C17.9489 106.179 17.8679 105.943 17.706 105.762C17.544 105.58 17.331 105.432 17.0668 105.318C16.8026 105.205 16.517 105.105 16.2102 105.02L15.1364 104.713C14.4545 104.517 13.9148 104.237 13.517 103.874C13.1193 103.51 12.9205 103.034 12.9205 102.446C12.9205 101.958 13.0526 101.531 13.3168 101.168C13.5838 100.801 13.9418 100.517 14.3906 100.316C14.8423 100.111 15.3466 100.009 15.9034 100.009C16.4659 100.009 16.9659 100.11 17.4034 100.311C17.8409 100.51 18.1875 100.783 18.4432 101.129C18.7017 101.476 18.8381 101.87 18.8523 102.31H17.8295ZM20.7092 108.855V100.128H25.9762V101.066H21.766V104.014H25.7035V104.952H21.766V107.918H26.0444V108.855H20.7092ZM35.2447 104.492C35.2447 105.412 35.0785 106.208 34.7461 106.878C34.4137 107.549 33.9577 108.066 33.3782 108.429C32.7987 108.793 32.1367 108.975 31.3924 108.975C30.6481 108.975 29.9862 108.793 29.4066 108.429C28.8271 108.066 28.3711 107.549 28.0387 106.878C27.7063 106.208 27.5401 105.412 27.5401 104.492C27.5401 103.571 27.7063 102.776 28.0387 102.105C28.3711 101.435 28.8271 100.918 29.4066 100.554C29.9862 100.191 30.6481 100.009 31.3924 100.009C32.1367 100.009 32.7987 100.191 33.3782 100.554C33.9577 100.918 34.4137 101.435 34.7461 102.105C35.0785 102.776 35.2447 103.571 35.2447 104.492ZM34.2219 104.492C34.2219 103.736 34.0955 103.098 33.8427 102.578C33.5927 102.058 33.2532 101.665 32.8242 101.398C32.3981 101.131 31.9208 100.997 31.3924 100.997C30.864 100.997 30.3853 101.131 29.9563 101.398C29.5302 101.665 29.1907 102.058 28.9379 102.578C28.6879 103.098 28.5629 103.736 28.5629 104.492C28.5629 105.247 28.6879 105.885 28.9379 106.405C29.1907 106.925 29.5302 107.318 29.9563 107.585C30.3853 107.853 30.864 107.986 31.3924 107.986C31.9208 107.986 32.3981 107.853 32.8242 107.585C33.2532 107.318 33.5927 106.925 33.8427 106.405C34.0955 105.885 34.2219 105.247 34.2219 104.492ZM40.6353 104.645V105.583H36.8171V104.645H40.6353ZM45.0639 108.992C44.473 108.992 43.9545 108.851 43.5085 108.57C43.0653 108.289 42.7188 107.895 42.4688 107.389C42.2216 106.884 42.098 106.293 42.098 105.617C42.098 104.935 42.2216 104.34 42.4688 103.831C42.7188 103.323 43.0653 102.928 43.5085 102.647C43.9545 102.365 44.473 102.225 45.0639 102.225C45.6548 102.225 46.1719 102.365 46.6151 102.647C47.0611 102.928 47.4077 103.323 47.6548 103.831C47.9048 104.34 48.0298 104.935 48.0298 105.617C48.0298 106.293 47.9048 106.884 47.6548 107.389C47.4077 107.895 47.0611 108.289 46.6151 108.57C46.1719 108.851 45.6548 108.992 45.0639 108.992ZM45.0639 108.088C45.5128 108.088 45.8821 107.973 46.1719 107.743C46.4616 107.513 46.6761 107.21 46.8153 106.835C46.9545 106.46 47.0241 106.054 47.0241 105.617C47.0241 105.179 46.9545 104.772 46.8153 104.394C46.6761 104.016 46.4616 103.71 46.1719 103.478C45.8821 103.245 45.5128 103.128 45.0639 103.128C44.6151 103.128 44.2457 103.245 43.956 103.478C43.6662 103.71 43.4517 104.016 43.3125 104.394C43.1733 104.772 43.1037 105.179 43.1037 105.617C43.1037 106.054 43.1733 106.46 43.3125 106.835C43.4517 107.21 43.6662 107.513 43.956 107.743C44.2457 107.973 44.6151 108.088 45.0639 108.088ZM49.565 111.31V102.31H50.5366V103.35H50.6559C50.7298 103.236 50.832 103.091 50.9627 102.915C51.0962 102.736 51.2866 102.577 51.5337 102.438C51.7837 102.296 52.1218 102.225 52.5479 102.225C53.0991 102.225 53.5849 102.362 54.0053 102.638C54.4258 102.914 54.7539 103.304 54.9897 103.81C55.2255 104.316 55.3434 104.912 55.3434 105.6C55.3434 106.293 55.2255 106.894 54.9897 107.402C54.7539 107.908 54.4272 108.3 54.0096 108.578C53.592 108.854 53.1104 108.992 52.565 108.992C52.1445 108.992 51.8079 108.922 51.555 108.783C51.3022 108.641 51.1076 108.48 50.9712 108.301C50.8349 108.12 50.7298 107.969 50.6559 107.85H50.5707V111.31H49.565ZM50.5536 105.583C50.5536 106.077 50.6261 106.513 50.771 106.891C50.9158 107.266 51.1275 107.56 51.4059 107.773C51.6843 107.983 52.0252 108.088 52.4286 108.088C52.8491 108.088 53.1999 107.978 53.4812 107.756C53.7653 107.531 53.9783 107.23 54.1204 106.853C54.2653 106.472 54.3377 106.049 54.3377 105.583C54.3377 105.122 54.2667 104.708 54.1246 104.338C53.9854 103.966 53.7738 103.672 53.4897 103.456C53.2085 103.237 52.8548 103.128 52.4286 103.128C52.0195 103.128 51.6758 103.232 51.3974 103.439C51.119 103.644 50.9087 103.931 50.7667 104.3C50.6246 104.666 50.5536 105.094 50.5536 105.583ZM59.7241 102.31V103.162H56.332V102.31H59.7241ZM57.3207 100.742H58.3263V106.98C58.3263 107.264 58.3675 107.478 58.4499 107.62C58.5352 107.759 58.6431 107.853 58.7738 107.901C58.9073 107.946 59.0479 107.969 59.1957 107.969C59.3065 107.969 59.3974 107.963 59.4684 107.952C59.5394 107.938 59.5962 107.926 59.6388 107.918L59.8434 108.821C59.7752 108.847 59.68 108.872 59.5579 108.898C59.4357 108.926 59.2809 108.941 59.0934 108.941C58.8093 108.941 58.5309 108.879 58.2582 108.757C57.9883 108.635 57.7638 108.449 57.5849 108.199C57.4087 107.949 57.3207 107.634 57.3207 107.253V100.742ZM61.2369 108.855V102.31H62.2425V108.855H61.2369ZM61.7482 101.219C61.5522 101.219 61.3832 101.152 61.2411 101.019C61.1019 100.885 61.0323 100.725 61.0323 100.537C61.0323 100.35 61.1019 100.189 61.2411 100.056C61.3832 99.9221 61.5522 99.8553 61.7482 99.8553C61.9442 99.8553 62.1119 99.9221 62.2511 100.056C62.3931 100.189 62.4641 100.35 62.4641 100.537C62.4641 100.725 62.3931 100.885 62.2511 101.019C62.1119 101.152 61.9442 101.219 61.7482 101.219ZM64.0845 108.855V102.31H65.0561V103.333H65.1413C65.2777 102.983 65.4979 102.712 65.8018 102.519C66.1058 102.323 66.4709 102.225 66.897 102.225C67.3288 102.225 67.6882 102.323 67.9751 102.519C68.2649 102.712 68.4908 102.983 68.6527 103.333H68.7209C68.8885 102.995 69.1399 102.726 69.4751 102.527C69.8104 102.326 70.2124 102.225 70.6811 102.225C71.2663 102.225 71.745 102.408 72.1172 102.774C72.4893 103.138 72.6754 103.705 72.6754 104.475V108.855H71.6697V104.475C71.6697 103.992 71.5376 103.647 71.2734 103.439C71.0092 103.232 70.6982 103.128 70.3402 103.128C69.88 103.128 69.5234 103.267 69.2706 103.546C69.0178 103.821 68.8913 104.171 68.8913 104.594V108.855H67.8686V104.372C67.8686 104 67.7479 103.701 67.5064 103.473C67.2649 103.243 66.9538 103.128 66.5732 103.128C66.3118 103.128 66.0675 103.198 65.8402 103.337C65.6158 103.476 65.4339 103.669 65.2947 103.916C65.1584 104.161 65.0902 104.443 65.0902 104.764V108.855H64.0845ZM74.5142 108.855V102.31H75.5199V108.855H74.5142ZM75.0256 101.219C74.8295 101.219 74.6605 101.152 74.5185 101.019C74.3793 100.885 74.3097 100.725 74.3097 100.537C74.3097 100.35 74.3793 100.189 74.5185 100.056C74.6605 99.9221 74.8295 99.8553 75.0256 99.8553C75.2216 99.8553 75.3892 99.9221 75.5284 100.056C75.6705 100.189 75.7415 100.35 75.7415 100.537C75.7415 100.725 75.6705 100.885 75.5284 101.019C75.3892 101.152 75.2216 101.219 75.0256 101.219ZM77.1744 108.855V108.088L80.8903 103.316V103.247H77.2937V102.31H82.1857V103.111L78.5721 107.85V107.918H82.305V108.855H77.1744ZM86.4109 108.992C85.7802 108.992 85.2362 108.853 84.7788 108.574C84.3242 108.293 83.9734 107.901 83.7262 107.398C83.4819 106.892 83.3597 106.304 83.3597 105.634C83.3597 104.963 83.4819 104.372 83.7262 103.861C83.9734 103.347 84.3171 102.946 84.7575 102.659C85.2006 102.37 85.7177 102.225 86.3086 102.225C86.6495 102.225 86.9862 102.281 87.3185 102.395C87.6509 102.509 87.9535 102.693 88.2262 102.949C88.4989 103.202 88.7163 103.537 88.8782 103.955C89.0401 104.372 89.1211 104.887 89.1211 105.497V105.924H84.0756V105.054H88.0984C88.0984 104.685 88.0245 104.355 87.8768 104.066C87.7319 103.776 87.5245 103.547 87.2546 103.379C86.9876 103.212 86.6722 103.128 86.3086 103.128C85.908 103.128 85.5614 103.228 85.2688 103.426C84.979 103.622 84.756 103.878 84.5998 104.193C84.4435 104.509 84.3654 104.847 84.3654 105.208V105.787C84.3654 106.281 84.4506 106.701 84.6211 107.044C84.7944 107.385 85.0344 107.645 85.3413 107.824C85.6481 108 86.0046 108.088 86.4109 108.088C86.6751 108.088 86.9137 108.051 87.1268 107.978C87.3427 107.901 87.5288 107.787 87.685 107.637C87.8413 107.483 87.962 107.293 88.0472 107.066L89.0188 107.338C88.9165 107.668 88.7447 107.958 88.5032 108.208C88.2617 108.455 87.9634 108.648 87.6083 108.787C87.2532 108.924 86.854 108.992 86.4109 108.992ZM93.1225 108.992C92.5771 108.992 92.0955 108.854 91.6779 108.578C91.2603 108.3 90.9336 107.908 90.6978 107.402C90.462 106.894 90.3441 106.293 90.3441 105.6C90.3441 104.912 90.462 104.316 90.6978 103.81C90.9336 103.304 91.2617 102.914 91.6822 102.638C92.1026 102.362 92.5884 102.225 93.1396 102.225C93.5657 102.225 93.9023 102.296 94.1495 102.438C94.3995 102.577 94.5898 102.736 94.7205 102.915C94.854 103.091 94.9577 103.236 95.0316 103.35H95.1168V100.128H96.1225V108.855H95.1509V107.85H95.0316C94.9577 107.969 94.8526 108.12 94.7163 108.301C94.5799 108.48 94.3853 108.641 94.1325 108.783C93.8796 108.922 93.543 108.992 93.1225 108.992ZM93.2589 108.088C93.6623 108.088 94.0032 107.983 94.2816 107.773C94.56 107.56 94.7717 107.266 94.9165 106.891C95.0614 106.513 95.1339 106.077 95.1339 105.583C95.1339 105.094 95.0629 104.666 94.9208 104.3C94.7788 103.931 94.5685 103.644 94.2901 103.439C94.0117 103.232 93.668 103.128 93.2589 103.128C92.8327 103.128 92.4776 103.237 92.1935 103.456C91.9123 103.672 91.7006 103.966 91.5586 104.338C91.4194 104.708 91.3498 105.122 91.3498 105.583C91.3498 106.049 91.4208 106.472 91.5629 106.853C91.7077 107.23 91.9208 107.531 92.2021 107.756C92.4862 107.978 92.8384 108.088 93.2589 108.088Z" fill="#412D3D"/>
</svg>
