<svg width="100" height="21" viewBox="0 0 100 21" fill="none" xmlns="http://www.w3.org/2000/svg">
<path d="M9.99984 2.522L12.5748 7.73867L18.3332 8.58034L14.1665 12.6387L15.1498 18.372L9.99984 15.6637L4.84984 18.372L5.83317 12.6387L1.6665 8.58034L7.42484 7.73867L9.99984 2.522Z" fill="#EAE239"/>
<path d="M29.9998 2.522L32.5748 7.73867L38.3332 8.58034L34.1665 12.6387L35.1498 18.372L29.9998 15.6637L24.8498 18.372L25.8332 12.6387L21.6665 8.58034L27.4248 7.73867L29.9998 2.522Z" fill="#EAE239"/>
<path d="M49.9998 2.522L52.5748 7.73867L58.3332 8.58034L54.1665 12.6387L55.1498 18.372L49.9998 15.6637L44.8498 18.372L45.8332 12.6387L41.6665 8.58034L47.4248 7.73867L49.9998 2.522Z" fill="#EAE239"/>
<path d="M69.9998 2.522L72.5748 7.73867L78.3332 8.58034L74.1665 12.6387L75.1498 18.372L69.9998 15.6637L64.8498 18.372L65.8332 12.6387L61.6665 8.58034L67.4248 7.73867L69.9998 2.522Z" fill="#EAE239"/>
<path d="M89.9998 2.522L92.5748 7.73867L98.3332 8.58034L94.1665 12.6387L95.1498 18.372L89.9998 15.6637L84.8498 18.372L85.8332 12.6387L81.6665 8.58034L87.4248 7.73867L89.9998 2.522Z" fill="#EAE239"/>
</svg>
