<svg width="40" height="40" viewBox="0 0 40 40" fill="none" xmlns="http://www.w3.org/2000/svg">
<path d="M16.2485 11C13.3543 11 11 13.3565 11 16.2515V23.7515C11 26.6457 13.3565 29 16.2515 29H23.7515C26.6457 29 29 26.6435 29 23.7485V16.2485C29 13.3543 26.6435 11 23.7485 11H16.2485ZM25.25 14C25.664 14 26 14.336 26 14.75C26 15.164 25.664 15.5 25.25 15.5C24.836 15.5 24.5 15.164 24.5 14.75C24.5 14.336 24.836 14 25.25 14ZM20 15.5C22.4818 15.5 24.5 17.5182 24.5 20C24.5 22.4818 22.4818 24.5 20 24.5C17.5182 24.5 15.5 22.4818 15.5 20C15.5 17.5182 17.5182 15.5 20 15.5ZM20 17C19.2044 17 18.4413 17.3161 17.8787 17.8787C17.3161 18.4413 17 19.2044 17 20C17 20.7956 17.3161 21.5587 17.8787 22.1213C18.4413 22.6839 19.2044 23 20 23C20.7956 23 21.5587 22.6839 22.1213 22.1213C22.6839 21.5587 23 20.7956 23 20C23 19.2044 22.6839 18.4413 22.1213 17.8787C21.5587 17.3161 20.7956 17 20 17Z" fill="#412D3D" fill-opacity="0.8"/>
</svg>
