<svg width="40" height="41" viewBox="0 0 40 41" fill="none" xmlns="http://www.w3.org/2000/svg">
<path fill-rule="evenodd" clip-rule="evenodd" d="M27.4878 29.2085H13.4878C12.3832 29.2085 11.4878 28.3131 11.4878 27.2085V13.2085C11.4878 12.1039 12.3832 11.2085 13.4878 11.2085H27.4878C28.5924 11.2085 29.4878 12.1039 29.4878 13.2085V27.2085C29.4878 28.3131 28.5924 29.2085 27.4878 29.2085ZM24.3172 26.7083H26.9883V21.2211C26.9883 18.8994 25.6722 17.7768 23.8339 17.7768C21.9948 17.7768 21.2208 19.209 21.2208 19.209V18.0416H18.6466V26.7083H21.2208V22.1588C21.2208 20.9398 21.7819 20.2144 22.8559 20.2144C23.8432 20.2144 24.3172 20.9114 24.3172 22.1588V26.7083ZM13.9883 15.3075C13.9883 16.1907 14.6988 16.9068 15.5756 16.9068C16.4524 16.9068 17.1625 16.1907 17.1625 15.3075C17.1625 14.4243 16.4524 13.7083 15.5756 13.7083C14.6988 13.7083 13.9883 14.4243 13.9883 15.3075ZM16.9306 26.7083H14.2464V18.0416H16.9306V26.7083Z" fill="#412D3D" fill-opacity="0.8"/>
</svg>
