<svg width="40" height="41" viewBox="0 0 40 41" fill="none" xmlns="http://www.w3.org/2000/svg">
<path d="M27.5 19.7919C27.5029 20.8917 27.2459 21.9768 26.75 22.9585C26.162 24.135 25.2581 25.1245 24.1395 25.8163C23.021 26.508 21.7319 26.8747 20.4167 26.8752C19.3168 26.8781 18.2318 26.6211 17.25 26.1252L12.5 27.7085L14.0833 22.9585C13.5874 21.9768 13.3305 20.8917 13.3333 19.7919C13.3338 18.4767 13.7005 17.1876 14.3923 16.069C15.084 14.9504 16.0735 14.0465 17.25 13.4585C18.2318 12.9626 19.3168 12.7057 20.4167 12.7085H20.8333C22.5703 12.8043 24.2109 13.5375 25.4409 14.7676C26.671 15.9977 27.4042 17.6382 27.5 19.3752V19.7919Z" stroke="#412D3D" stroke-opacity="0.8" stroke-width="2" stroke-linecap="round" stroke-linejoin="round"/>
</svg>
