<svg width="40" height="41" viewBox="0 0 40 41" fill="none" xmlns="http://www.w3.org/2000/svg">
<g clip-path="url(#clip0_2004_2663)">
<path d="M28.3332 24.3084V26.8084C28.3341 27.0405 28.2866 27.2702 28.1936 27.4829C28.1006 27.6955 27.9643 27.8864 27.7933 28.0433C27.6222 28.2002 27.4203 28.3196 27.2005 28.394C26.9806 28.4684 26.7477 28.496 26.5165 28.4751C23.9522 28.1964 21.489 27.3202 19.3249 25.9167C17.3114 24.6373 15.6043 22.9302 14.3249 20.9167C12.9165 18.7428 12.0401 16.2676 11.7665 13.6917C11.7457 13.4613 11.7731 13.229 11.8469 13.0098C11.9208 12.7905 12.0395 12.589 12.1955 12.4181C12.3515 12.2472 12.5414 12.1107 12.753 12.0172C12.9647 11.9237 13.1935 11.8753 13.4249 11.8751H15.9249C16.3293 11.8711 16.7214 12.0143 17.028 12.278C17.3346 12.5417 17.5349 12.908 17.5915 13.3084C17.697 14.1085 17.8927 14.894 18.1749 15.6501C18.287 15.9484 18.3112 16.2725 18.2448 16.5841C18.1783 16.8958 18.0239 17.1818 17.7999 17.4084L16.7415 18.4667C17.9278 20.553 19.6552 22.2805 21.7415 23.4667L22.7999 22.4084C23.0264 22.1844 23.3125 22.03 23.6241 21.9635C23.9358 21.897 24.2599 21.9213 24.5582 22.0334C25.3143 22.3155 26.0998 22.5112 26.8999 22.6167C27.3047 22.6739 27.6744 22.8778 27.9386 23.1897C28.2029 23.5016 28.3433 23.8997 28.3332 24.3084Z" stroke="#412D3D" stroke-opacity="0.8" stroke-width="2" stroke-linecap="round" stroke-linejoin="round"/>
</g>
<defs>
<clipPath id="clip0_2004_2663">
<rect width="20" height="20" fill="white" transform="translate(10 10.2085)"/>
</clipPath>
</defs>
</svg>
