<svg width="40" height="41" viewBox="0 0 40 41" fill="none" xmlns="http://www.w3.org/2000/svg">
<path fill-rule="evenodd" clip-rule="evenodd" d="M12.9145 13.4704C11.3661 13.5932 10.1958 14.8646 10.1204 16.4313C10.0583 17.7221 10 19.2073 10 20.2326C10 21.2697 10.0597 22.7774 10.1226 24.0782C10.1973 25.6248 11.3408 26.8878 12.8677 27.0302C14.5578 27.1877 17.0031 27.3464 20 27.3464C22.9891 27.3464 25.4294 27.1886 27.1191 27.0315C28.6519 26.8889 29.7977 25.6176 29.8713 24.0651C29.9364 22.6954 30 21.1282 30 20.2326C30 19.3468 29.9378 17.8035 29.8735 16.4444C29.7991 14.8717 28.6269 13.5925 27.0726 13.4694C25.409 13.3378 23.0094 13.2085 19.9999 13.2085C16.9826 13.2085 14.5784 13.3384 12.9145 13.4704L12.9145 13.4704ZM18.0003 17.2351L23.1559 20.2326L18.0003 23.2303V17.2351Z" fill="#412D3D" fill-opacity="0.8"/>
</svg>
