<svg width="118" height="32" viewBox="0 0 118 32" fill="none" xmlns="http://www.w3.org/2000/svg">
<path d="M20.074 0.843088L16.9276 0L14.2761 9.89566L11.8823 0.961792L8.73578 1.80488L11.3222 11.4573L4.88007 5.01519L2.57671 7.31854L9.6429 14.3848L0.843086 12.0269L0 15.1733L9.6149 17.7496C9.50482 17.2748 9.44658 16.7801 9.44658 16.2717C9.44658 12.6737 12.3634 9.75686 15.9615 9.75686C19.5595 9.75686 22.4764 12.6737 22.4764 16.2717C22.4764 16.7768 22.4188 17.2685 22.3101 17.7405L31.0483 20.0818L31.8913 16.9354L22.2382 14.3489L31.0386 11.9908L30.1955 8.84438L20.5427 11.4308L26.9848 4.98874L24.6815 2.68539L17.7133 9.65358L20.074 0.843088Z" fill="#EAE239"/>
<path d="M22.3014 17.7771C22.0316 18.9176 21.4621 19.9421 20.6807 20.763L27.0111 27.0935L29.3144 24.7901L22.3014 17.7771Z" fill="#EAE239"/>
<path d="M20.6172 20.8293C19.8263 21.6371 18.8269 22.2399 17.7061 22.5505L20.0096 31.1474L23.156 30.3042L20.6172 20.8293Z" fill="#EAE239"/>
<path d="M17.588 22.5818C17.068 22.7155 16.5229 22.7866 15.9613 22.7866C15.3595 22.7866 14.7768 22.705 14.2236 22.5522L11.918 31.1569L15.0644 31.9999L17.588 22.5818Z" fill="#EAE239"/>
<path d="M14.1123 22.5206C13.0086 22.1945 12.027 21.584 11.2522 20.7739L4.90625 27.1199L7.2096 29.4233L14.1123 22.5206Z" fill="#EAE239"/>
<path d="M11.1993 20.7178C10.4379 19.9026 9.88323 18.8917 9.61923 17.7688L0.852539 20.1178L1.69562 23.2642L11.1993 20.7178Z" fill="#EAE239"/>
<path d="M43.9612 8.45455V23H41.3263V8.45455H43.9612ZM46.7009 23V12.0909H49.1583V13.9446H49.2861C49.5134 13.3196 49.8898 12.8319 50.4154 12.4815C50.941 12.1264 51.5683 11.9489 52.2975 11.9489C53.0361 11.9489 53.6588 12.1288 54.1654 12.4886C54.6768 12.8437 55.0366 13.3291 55.2449 13.9446H55.3586C55.6001 13.3385 56.0073 12.8556 56.5802 12.4957C57.1578 12.1312 57.842 11.9489 58.6327 11.9489C59.6365 11.9489 60.4556 12.2661 61.0901 12.9006C61.7246 13.535 62.0418 14.4607 62.0418 15.6776V23H59.4637V16.0753C59.4637 15.3982 59.2838 14.9034 58.9239 14.5909C58.5641 14.2737 58.1237 14.1151 57.6029 14.1151C56.9826 14.1151 56.4973 14.3092 56.1469 14.6974C55.8013 15.081 55.6285 15.5805 55.6285 16.196V23H53.1072V15.9688C53.1072 15.4053 52.9367 14.9555 52.5958 14.6193C52.2596 14.2831 51.8193 14.1151 51.2748 14.1151C50.9055 14.1151 50.5693 14.2098 50.2662 14.3991C49.9632 14.5838 49.7217 14.8466 49.5418 15.1875C49.3619 15.5237 49.2719 15.9167 49.2719 16.3665V23H46.7009ZM64.6501 27.0909V12.0909H67.1785V13.8949H67.3277C67.4603 13.6297 67.6473 13.348 67.8888 13.0497C68.1302 12.7467 68.4569 12.4886 68.8689 12.2756C69.2808 12.0578 69.8064 11.9489 70.4456 11.9489C71.2884 11.9489 72.0483 12.1643 72.7254 12.5952C73.4072 13.0213 73.947 13.6534 74.3447 14.4915C74.7472 15.3248 74.9484 16.3475 74.9484 17.5597C74.9484 18.7576 74.7519 19.7756 74.3589 20.6136C73.9659 21.4517 73.4309 22.0909 72.7538 22.5312C72.0767 22.9716 71.3097 23.1918 70.4527 23.1918C69.8277 23.1918 69.3092 23.0876 68.8973 22.8793C68.4854 22.6709 68.1539 22.42 67.903 22.1264C67.6568 21.8281 67.465 21.5464 67.3277 21.2812H67.2211V27.0909H64.6501ZM67.1714 17.5455C67.1714 18.2509 67.2709 18.8688 67.4697 19.3991C67.6733 19.9295 67.9645 20.3437 68.3433 20.642C68.7268 20.9356 69.1908 21.0824 69.7354 21.0824C70.3035 21.0824 70.7794 20.9309 71.1629 20.6278C71.5464 20.3201 71.8353 19.901 72.0294 19.3707C72.2282 18.8357 72.3277 18.2273 72.3277 17.5455C72.3277 16.8684 72.2306 16.267 72.0365 15.7415C71.8424 15.2159 71.5535 14.804 71.17 14.5057C70.7865 14.2074 70.3083 14.0582 69.7354 14.0582C69.1861 14.0582 68.7197 14.2027 68.3362 14.4915C67.9527 14.7803 67.6615 15.1851 67.4626 15.706C67.2685 16.2268 67.1714 16.84 67.1714 17.5455ZM77.1501 23V12.0909H79.643V13.9091H79.7567C79.9555 13.2794 80.2964 12.794 80.7794 12.4531C81.2671 12.1075 81.8234 11.9347 82.4484 11.9347C82.5905 11.9347 82.7491 11.9418 82.9243 11.956C83.1042 11.9654 83.2533 11.982 83.3717 12.0057V14.3707C83.2628 14.3329 83.09 14.2997 82.8532 14.2713C82.6212 14.2382 82.3963 14.2216 82.1785 14.2216C81.7098 14.2216 81.2884 14.3234 80.9143 14.527C80.545 14.7259 80.2538 15.0028 80.0407 15.358C79.8277 15.7131 79.7211 16.1226 79.7211 16.5866V23H77.1501ZM89.4601 23.2131C88.3664 23.2131 87.4218 22.9858 86.6263 22.5312C85.8356 22.072 85.2272 21.4233 84.801 20.5852C84.3749 19.7424 84.1618 18.7505 84.1618 17.6094C84.1618 16.4872 84.3749 15.5024 84.801 14.6548C85.2319 13.8026 85.8332 13.1397 86.605 12.6662C87.3768 12.188 88.2835 11.9489 89.3252 11.9489C89.9975 11.9489 90.632 12.0578 91.2286 12.2756C91.8299 12.4886 92.3602 12.8201 92.8195 13.2699C93.2835 13.7197 93.6481 14.2926 93.9133 14.9886C94.1784 15.6799 94.311 16.5038 94.311 17.4602V18.2486H85.3692V16.5156H91.8465C91.8418 16.0232 91.7352 15.5852 91.5269 15.2017C91.3186 14.8134 91.0274 14.508 90.6533 14.2855C90.284 14.063 89.8531 13.9517 89.3607 13.9517C88.8351 13.9517 88.3735 14.0795 87.9758 14.3352C87.578 14.5862 87.2679 14.9176 87.0454 15.3295C86.8276 15.7367 86.7163 16.1842 86.7116 16.6719V18.1847C86.7116 18.8191 86.8276 19.3636 87.0596 19.8182C87.2916 20.268 87.6159 20.6136 88.0326 20.8551C88.4492 21.0919 88.9369 21.2102 89.4957 21.2102C89.8697 21.2102 90.2082 21.1581 90.5113 21.054C90.8143 20.9451 91.0771 20.7865 91.2996 20.5781C91.5222 20.3698 91.6903 20.1117 91.8039 19.804L94.2045 20.0739C94.0529 20.7083 93.7641 21.2623 93.338 21.7358C92.9166 22.2045 92.3768 22.5691 91.7187 22.8295C91.0605 23.0852 90.3077 23.2131 89.4601 23.2131ZM105.108 14.9744L102.764 15.2301C102.698 14.9934 102.582 14.7708 102.416 14.5625C102.255 14.3542 102.038 14.1861 101.763 14.0582C101.488 13.9304 101.152 13.8665 100.755 13.8665C100.219 13.8665 99.7697 13.9825 99.4051 14.2145C99.0452 14.4465 98.8677 14.7472 98.8724 15.1165C98.8677 15.4337 98.9837 15.6918 99.2204 15.8906C99.4619 16.0895 99.8596 16.2528 100.414 16.3807L102.274 16.7784C103.307 17.0009 104.074 17.3537 104.576 17.8366C105.082 18.3196 105.338 18.9517 105.343 19.733C105.338 20.4195 105.137 21.0256 104.739 21.5511C104.346 22.072 103.799 22.4792 103.098 22.7727C102.398 23.0663 101.593 23.2131 100.684 23.2131C99.3483 23.2131 98.2735 22.9337 97.4591 22.375C96.6447 21.8116 96.1594 21.0279 96.0031 20.0241L98.5102 19.7827C98.6238 20.2751 98.8653 20.6468 99.2346 20.8977C99.604 21.1487 100.085 21.2741 100.676 21.2741C101.287 21.2741 101.777 21.1487 102.147 20.8977C102.521 20.6468 102.708 20.3366 102.708 19.9673C102.708 19.6548 102.587 19.3968 102.345 19.1932C102.109 18.9896 101.739 18.8333 101.237 18.7244L99.3767 18.3338C98.3303 18.116 97.5561 17.7491 97.0542 17.233C96.5523 16.7121 96.3038 16.054 96.3085 15.2585C96.3038 14.5862 96.4861 14.0038 96.8554 13.5114C97.2294 13.0142 97.7479 12.6307 98.4108 12.3608C99.0784 12.0862 99.8478 11.9489 100.719 11.9489C101.997 11.9489 103.004 12.2211 103.737 12.7656C104.476 13.3101 104.933 14.0464 105.108 14.9744ZM116.085 14.9744L113.741 15.2301C113.675 14.9934 113.559 14.7708 113.393 14.5625C113.232 14.3542 113.014 14.1861 112.74 14.0582C112.465 13.9304 112.129 13.8665 111.731 13.8665C111.196 13.8665 110.746 13.9825 110.382 14.2145C110.022 14.4465 109.844 14.7472 109.849 15.1165C109.844 15.4337 109.96 15.6918 110.197 15.8906C110.438 16.0895 110.836 16.2528 111.39 16.3807L113.251 16.7784C114.283 17.0009 115.05 17.3537 115.552 17.8366C116.059 18.3196 116.314 18.9517 116.319 19.733C116.314 20.4195 116.113 21.0256 115.715 21.5511C115.322 22.072 114.776 22.4792 114.075 22.7727C113.374 23.0663 112.569 23.2131 111.66 23.2131C110.325 23.2131 109.25 22.9337 108.436 22.375C107.621 21.8116 107.136 21.0279 106.98 20.0241L109.487 19.7827C109.6 20.2751 109.842 20.6468 110.211 20.8977C110.581 21.1487 111.061 21.2741 111.653 21.2741C112.264 21.2741 112.754 21.1487 113.123 20.8977C113.497 20.6468 113.684 20.3366 113.684 19.9673C113.684 19.6548 113.563 19.3968 113.322 19.1932C113.085 18.9896 112.716 18.8333 112.214 18.7244L110.353 18.3338C109.307 18.116 108.533 17.7491 108.031 17.233C107.529 16.7121 107.28 16.054 107.285 15.2585C107.28 14.5862 107.463 14.0038 107.832 13.5114C108.206 13.0142 108.724 12.6307 109.387 12.3608C110.055 12.0862 110.824 11.9489 111.696 11.9489C112.974 11.9489 113.98 12.2211 114.714 12.7656C115.453 13.3101 115.91 14.0464 116.085 14.9744Z" fill="#412D3D"/>
</svg>
