<svg width="119" height="29" viewBox="0 0 119 29" fill="none" xmlns="http://www.w3.org/2000/svg">
<g clip-path="url(#clip0_53_20777)">
<path fill-rule="evenodd" clip-rule="evenodd" d="M7.16026 2.30884V28.5588H0.149902V2.30884H7.16026Z" fill="#331A2E"/>
<path fill-rule="evenodd" clip-rule="evenodd" d="M10.6655 2.30884H25.5626C30.4022 2.30884 34.3255 6.22635 34.3255 11.0588C34.3255 15.8914 30.4022 19.8088 25.5626 19.8088H17.6759V28.5588H10.6655V2.30884ZM17.6759 12.8088H25.5626C26.5305 12.8088 27.3152 12.0253 27.3152 11.0588C27.3152 10.0923 26.5305 9.30884 25.5626 9.30884H17.6759V12.8088Z" fill="#331A2E"/>
<path fill-rule="evenodd" clip-rule="evenodd" d="M60.6144 2.30884V15.8713C60.6144 19.0124 63.1645 21.5588 66.3103 21.5588C69.4561 21.5588 72.0063 19.0124 72.0063 15.8713V2.30884H79.0168V15.8713C79.0168 22.8785 73.3279 28.5588 66.3103 28.5588C59.2928 28.5588 53.604 22.8785 53.604 15.8713V2.30884H60.6144Z" fill="#331A2E"/>
<path fill-rule="evenodd" clip-rule="evenodd" d="M36.9542 14.5588C36.9542 7.79334 42.4468 2.30884 49.2223 2.30884H50.9749V9.30884H49.2223C46.3185 9.30884 43.9646 11.6594 43.9646 14.5588V15.4338C43.9646 22.6825 38.0796 28.5588 30.8201 28.5588H29.9438V21.5588H30.8201C34.2079 21.5588 36.9542 18.8166 36.9542 15.4338V14.5588Z" fill="#331A2E"/>
<path d="M118.45 3.18384C118.45 4.63359 117.273 5.80884 115.821 5.80884C114.369 5.80884 113.192 4.63359 113.192 3.18384C113.192 1.73409 114.369 0.558838 115.821 0.558838C117.273 0.558838 118.45 1.73409 118.45 3.18384Z" fill="#331A2E"/>
<path d="M86.5441 28.5588L89.8894 14.5715L92.3765 22.9863C93.8591 28.0052 100.979 28.0052 102.462 22.9863L104.949 14.5715L108.294 28.5588H115.501L110.241 6.56447C108.99 1.33404 101.609 1.14038 100.084 6.29807L97.4193 15.3171L94.7537 6.29807C93.2298 1.14041 85.8476 1.33401 84.5967 6.56447L79.3369 28.5588H86.5441Z" fill="#331A2E"/>
</g>
<defs>
<clipPath id="clip0_53_20777">
<rect width="118.3" height="28" fill="white" transform="translate(0.149902 0.558838)"/>
</clipPath>
</defs>
</svg>
