<svg width="197" height="37" viewBox="0 0 197 37" fill="none" xmlns="http://www.w3.org/2000/svg">
<g clip-path="url(#clip0_53_20785)">
<path d="M110.57 27.1303H114.767V11.3005H110.57V27.1303ZM110.57 8.83199H114.767V5.06741H110.57V8.83199Z" fill="#331A2E"/>
<path d="M117.471 32.3143H121.667V25.3405H121.729C122.623 26.6983 124.074 27.5931 126.295 27.5931C130.369 27.5931 133.146 24.3531 133.146 19.2309C133.146 14.2936 130.461 10.8685 126.265 10.8685C124.105 10.8685 122.623 11.8869 121.605 13.2754H121.513V11.3005H117.471V32.3143ZM125.401 24.1063C122.901 24.1063 121.575 22.224 121.575 19.3543C121.575 16.5154 122.623 14.2629 125.247 14.2629C127.839 14.2629 128.887 16.3611 128.887 19.3543C128.887 22.3474 127.53 24.1063 125.401 24.1063Z" fill="#331A2E"/>
<path d="M141.517 27.5931C145.467 27.5931 148.182 25.68 148.182 22.5016C148.182 18.7989 145.251 18.0583 142.597 17.5029C140.344 17.04 138.246 16.9165 138.246 15.5589C138.246 14.4171 139.326 13.8 140.962 13.8C142.752 13.8 143.832 14.4171 144.016 16.1143H147.812C147.504 12.936 145.189 10.8685 141.024 10.8685C137.413 10.8685 134.574 12.504 134.574 15.9291C134.574 19.3851 137.352 20.1565 140.19 20.712C142.35 21.144 144.356 21.2983 144.356 22.8103C144.356 23.9211 143.307 24.6309 141.456 24.6309C139.573 24.6309 138.277 23.8285 138 22.008H134.112C134.358 25.3714 136.92 27.5931 141.517 27.5931Z" fill="#331A2E"/>
<path d="M164.115 27.1303V11.3005H159.919V20.4343C159.919 22.5325 158.715 24.0137 156.741 24.0137C154.951 24.0137 154.118 22.9954 154.118 21.144V11.3005H149.952V21.8537C149.952 25.3097 151.927 27.5623 155.445 27.5623C157.667 27.5623 158.901 26.7291 159.981 25.2789H160.074V27.1303H164.115Z" fill="#331A2E"/>
<path d="M166.83 27.1303H171.026V17.9349C171.026 15.8365 172.168 14.4789 173.866 14.4789C175.408 14.4789 176.303 15.4045 176.303 17.1943V27.1303H180.5V17.9349C180.5 15.8365 181.58 14.4789 183.338 14.4789C184.882 14.4789 185.776 15.4045 185.776 17.1943V27.1303H189.973V16.4845C189.973 13.0285 188.09 10.8685 184.758 10.8685C182.752 10.8685 181.086 11.9176 180.006 13.6456H179.944C179.173 11.9794 177.568 10.8685 175.562 10.8685C173.372 10.8685 171.829 11.9794 170.965 13.4296H170.872V11.3005H166.83V27.1303Z" fill="#331A2E"/>
<path d="M1.19189 27.1303H5.38846V5.06741H1.19189V27.1303Z" fill="#331A2E"/>
<path d="M15.6496 27.5931C20.5559 27.5931 23.9193 23.952 23.9193 19.2309C23.9193 14.5096 20.5559 10.8685 15.6496 10.8685C10.7433 10.8685 7.37988 14.5096 7.37988 19.2309C7.37988 23.952 10.7433 27.5931 15.6496 27.5931ZM15.6496 24.384C13.0576 24.384 11.6382 22.3165 11.6382 19.2309C11.6382 16.1451 13.0576 14.0469 15.6496 14.0469C18.2108 14.0469 19.661 16.1451 19.661 19.2309C19.661 22.3165 18.2108 24.384 15.6496 24.384Z" fill="#331A2E"/>
<path d="M32.8438 32.5303C35.1889 32.5303 37.2255 31.9749 38.5523 30.7405C39.7249 29.6605 40.4346 28.1485 40.4346 25.9269V11.3005H36.3924V12.9669H36.3306C35.374 11.64 33.9238 10.8685 31.9489 10.8685C27.9375 10.8685 25.0986 13.8925 25.0986 18.6136C25.0986 23.3965 28.5546 26.1736 32.0724 26.1736C34.078 26.1736 35.2815 25.3714 36.2072 24.3223H36.2998V26.0503C36.2998 28.2103 35.158 29.352 32.782 29.352C30.838 29.352 29.9432 28.5805 29.6038 27.5931H25.438C25.87 30.6789 28.5238 32.5303 32.8438 32.5303ZM32.782 22.8103C30.622 22.8103 29.2026 21.2365 29.2026 18.552C29.2026 15.8983 30.622 14.232 32.7512 14.232C35.2815 14.232 36.5158 16.2069 36.5158 18.5211C36.5158 20.8663 35.4358 22.8103 32.782 22.8103Z" fill="#331A2E"/>
<path d="M50.635 27.5931C55.5412 27.5931 58.9047 23.952 58.9047 19.2309C58.9047 14.5096 55.5412 10.8685 50.635 10.8685C45.7287 10.8685 42.3652 14.5096 42.3652 19.2309C42.3652 23.952 45.7287 27.5931 50.635 27.5931ZM50.635 24.384C48.043 24.384 46.6236 22.3165 46.6236 19.2309C46.6236 16.1451 48.043 14.0469 50.635 14.0469C53.1961 14.0469 54.6465 16.1451 54.6465 19.2309C54.6465 22.3165 53.1961 24.384 50.635 24.384Z" fill="#331A2E"/>
<path d="M191.498 8.7017C191.498 7.99162 192.074 7.41599 192.784 7.41599H195.355C196.065 7.41599 196.641 7.99162 196.641 8.7017C196.641 9.41178 196.065 9.98742 195.355 9.98742H192.784C192.074 9.98742 191.498 9.41178 191.498 8.7017Z" fill="#331A2E"/>
<path fill-rule="evenodd" clip-rule="evenodd" d="M84.355 0.558838C94.2957 0.558838 102.355 8.61772 102.355 18.5588C102.355 28.5 94.2957 36.5588 84.355 36.5588C74.4138 36.5588 66.355 28.5 66.355 18.5588C66.355 8.61772 74.4138 0.558838 84.355 0.558838ZM83.7044 1.90577C81.6508 2.19476 79.6955 3.84481 78.1776 6.6045C77.7374 7.40498 77.3401 8.28935 76.994 9.24423C79.0578 8.72559 81.325 8.41982 83.7044 8.37252V1.90577ZM75.4726 9.67656C75.9032 8.32546 76.4298 7.0824 77.0375 5.97742C77.7899 4.60937 78.6829 3.42799 79.689 2.52063C74.218 4.10954 69.9057 8.42195 68.3167 13.893C69.2241 12.8869 70.4054 11.9939 71.7735 11.2415C72.8785 10.6337 74.1215 10.107 75.4726 9.67656ZM75.0403 11.1978C74.5217 13.2617 74.2159 15.5289 74.1686 17.9082H67.7018C67.9908 15.8547 69.6409 13.8994 72.4006 12.3816C73.2011 11.9413 74.0854 11.5441 75.0403 11.1978ZM75.4701 17.9082C75.5238 15.3116 75.8977 12.8739 76.5162 10.72C78.67 10.1015 81.1078 9.72768 83.7044 9.67395V12.4846C82.7357 14.9644 80.76 16.9399 78.2801 17.9082H75.4701ZM74.1686 19.2094H67.7018C67.9908 21.263 69.6409 23.2182 72.4006 24.7361C73.2011 25.1764 74.0854 25.5736 75.0403 25.9198C74.5217 23.856 74.2159 21.5888 74.1686 19.2094ZM76.5162 26.3977C75.8977 24.2438 75.5238 21.806 75.4701 19.2094H78.2801C80.76 20.1778 82.7357 22.1533 83.7044 24.6331V27.4437C81.1078 27.39 78.67 27.0161 76.5162 26.3977ZM75.4726 27.4411C74.1215 27.0106 72.8785 26.484 71.7735 25.8762C70.4054 25.1238 69.2241 24.2308 68.3167 23.2247C69.9057 28.6957 74.218 33.0082 79.689 34.597C78.6829 33.6896 77.7899 32.5083 77.0375 31.1402C76.4298 30.0353 75.9032 28.7922 75.4726 27.4411ZM83.7044 35.2119C81.6508 34.9229 79.6955 33.2728 78.1776 30.5132C77.7374 29.7127 77.3401 28.8283 76.994 27.8735C79.0578 28.3921 81.325 28.6979 83.7044 28.7451V35.2119ZM89.0209 34.597C90.027 33.6896 90.9199 32.5083 91.6723 31.1402C92.2798 30.0353 92.8071 28.7922 93.2374 27.4411C94.5883 27.0106 95.8312 26.484 96.9364 25.8762C98.3044 25.1238 99.486 24.2308 100.393 23.2247C98.8038 28.6957 94.492 33.0082 89.0209 34.597ZM91.7163 27.8735C91.3698 28.8283 90.9721 29.7127 90.532 30.5132C89.0144 33.2728 87.059 34.9229 85.0055 35.2119V28.7451C87.3848 28.6979 89.652 28.3921 91.7163 27.8735ZM93.6694 25.9198C94.6243 25.5736 95.509 25.1764 96.3091 24.7361C99.0694 23.2183 100.719 21.263 101.008 19.2094H94.5414C94.4937 21.5888 94.1878 23.856 93.6694 25.9198ZM93.24 19.2094C93.186 21.806 92.8125 24.2438 92.1933 26.3977C90.0398 27.0161 87.6021 27.39 85.0055 27.4437V24.6352C85.9739 22.1544 87.95 20.178 90.4306 19.2094H93.24ZM94.5414 17.9082H101.008C100.719 15.8547 99.0694 13.8994 96.3091 12.3816C95.509 11.9413 94.6243 11.5441 93.6694 11.1978C94.1878 13.2617 94.4937 15.5289 94.5414 17.9082ZM92.1933 10.72C92.8125 12.8739 93.186 15.3116 93.24 17.9082H90.4307C87.95 16.9396 85.9739 14.9632 85.0055 12.4825V9.67395C87.6021 9.72768 90.0398 10.1015 92.1933 10.72ZM93.2374 9.67656C94.5883 10.107 95.8312 10.6337 96.9364 11.2415C98.3044 11.9939 99.486 12.8869 100.393 13.893C98.8038 8.42195 94.492 4.10954 89.0209 2.52063C90.027 3.42799 90.9199 4.60937 91.6723 5.97742C92.2798 7.0824 92.8071 8.32546 93.2374 9.67656ZM85.0055 1.90577C87.059 2.19476 89.0144 3.84481 90.532 6.6045C90.9721 7.40499 91.3698 8.28935 91.7163 9.24423C89.652 8.72559 87.3848 8.41982 85.0055 8.37252V1.90577Z" fill="#331A2E"/>
</g>
<defs>
<clipPath id="clip0_53_20785">
<rect width="196.2" height="36" fill="white" transform="translate(0.450195 0.558838)"/>
</clipPath>
</defs>
</svg>
