<svg width="169" height="42" viewBox="0 0 169 42" fill="none" xmlns="http://www.w3.org/2000/svg">
<g clip-path="url(#clip0_53_20797)">
<path d="M49.9272 29.0112H61.8792V25.4112H54.1752V11.8512H49.9272V29.0112Z" fill="#7a6c78"/>
<path d="M68.9607 26.6112C67.2567 26.6112 66.3687 25.1232 66.3687 22.8912C66.3687 20.6592 67.2567 19.1472 68.9607 19.1472C70.6647 19.1472 71.5767 20.6592 71.5767 22.8912C71.5767 25.1232 70.6647 26.6112 68.9607 26.6112ZM68.9847 29.3952C72.9447 29.3952 75.5367 26.5872 75.5367 22.8912C75.5367 19.1952 72.9447 16.3872 68.9847 16.3872C65.0487 16.3872 62.4087 19.1952 62.4087 22.8912C62.4087 26.5872 65.0487 29.3952 68.9847 29.3952Z" fill="#7a6c78"/>
<path d="M82.391 33.2592C84.215 33.2592 85.823 32.8512 86.903 31.8912C87.887 31.0032 88.535 29.6592 88.535 27.8112V16.7232H84.791V18.0432H84.743C84.023 17.0112 82.919 16.3632 81.287 16.3632C78.239 16.3632 76.127 18.9072 76.127 22.5072C76.127 26.2752 78.695 28.3392 81.455 28.3392C82.943 28.3392 83.879 27.7392 84.599 26.9232H84.695V28.1472C84.695 29.6352 83.999 30.4992 82.343 30.4992C81.047 30.4992 80.399 29.9472 80.183 29.2992H76.391C76.775 31.8672 79.007 33.2592 82.391 33.2592ZM82.367 25.4352C80.903 25.4352 79.943 24.2352 79.943 22.3872C79.943 20.5152 80.903 19.3152 82.367 19.3152C83.999 19.3152 84.863 20.7072 84.863 22.3632C84.863 24.0912 84.071 25.4352 82.367 25.4352Z" fill="#7a6c78"/>
<path d="M96.2336 26.6112C94.5296 26.6112 93.6416 25.1232 93.6416 22.8912C93.6416 20.6592 94.5296 19.1472 96.2336 19.1472C97.9376 19.1472 98.8496 20.6592 98.8496 22.8912C98.8496 25.1232 97.9376 26.6112 96.2336 26.6112ZM96.2576 29.3952C100.218 29.3952 102.809 26.5872 102.809 22.8912C102.809 19.1952 100.218 16.3872 96.2576 16.3872C92.3216 16.3872 89.6816 19.1952 89.6816 22.8912C89.6816 26.5872 92.3216 29.3952 96.2576 29.3952Z" fill="#7a6c78"/>
<path d="M103.952 29.0112H107.864V16.7232H103.952V29.0112ZM103.952 15.0192H107.864V11.8512H103.952V15.0192Z" fill="#7a6c78"/>
<path d="M109.561 33.0672H113.473V27.7392H113.521C114.289 28.7712 115.417 29.3952 117.001 29.3952C120.217 29.3952 122.353 26.8512 122.353 22.8672C122.353 19.1712 120.361 16.3632 117.097 16.3632C115.417 16.3632 114.217 17.1072 113.377 18.2112H113.305V16.7232H109.561V33.0672ZM115.993 26.3712C114.313 26.3712 113.353 25.0032 113.353 23.0112C113.353 21.0192 114.217 19.5072 115.921 19.5072C117.601 19.5072 118.393 20.8992 118.393 23.0112C118.393 25.0992 117.481 26.3712 115.993 26.3712Z" fill="#7a6c78"/>
<path d="M128.722 29.3952C131.938 29.3952 134.314 28.0032 134.314 25.3152C134.314 22.1712 131.77 21.6192 129.61 21.2592C128.05 20.9712 126.658 20.8512 126.658 19.9872C126.658 19.2192 127.402 18.8592 128.362 18.8592C129.442 18.8592 130.186 19.1952 130.33 20.2992H133.93C133.738 17.8752 131.866 16.3632 128.386 16.3632C125.482 16.3632 123.082 17.7072 123.082 20.2992C123.082 23.1792 125.362 23.7552 127.498 24.1152C129.13 24.4032 130.618 24.5232 130.618 25.6272C130.618 26.4192 129.874 26.8512 128.698 26.8512C127.402 26.8512 126.586 26.2512 126.442 25.0272H122.746C122.866 27.7392 125.122 29.3952 128.722 29.3952Z" fill="#7a6c78"/>
<path d="M139.628 29.3712C141.332 29.3712 142.412 28.6992 143.3 27.4992H143.372V29.0112H147.116V16.7232H143.204V23.5872C143.204 25.0512 142.388 26.0592 141.044 26.0592C139.796 26.0592 139.196 25.3152 139.196 23.9712V16.7232H135.308V24.7872C135.308 27.5232 136.796 29.3712 139.628 29.3712Z" fill="#7a6c78"/>
<path d="M148.818 29.0112H152.73V22.1232C152.73 20.6592 153.45 19.6272 154.674 19.6272C155.85 19.6272 156.402 20.3952 156.402 21.7152V29.0112H160.314V22.1232C160.314 20.6592 161.01 19.6272 162.258 19.6272C163.434 19.6272 163.986 20.3952 163.986 21.7152V29.0112H167.898V21.0192C167.898 18.2592 166.506 16.3632 163.722 16.3632C162.138 16.3632 160.818 17.0352 159.858 18.5232H159.81C159.186 17.2032 157.962 16.3632 156.354 16.3632C154.578 16.3632 153.402 17.2032 152.634 18.4752H152.562V16.7232H148.818V29.0112Z" fill="#7a6c78"/>
<path d="M26.0598 2.03573L22.1268 0.981873L18.8124 13.3514L15.8201 2.18411L11.887 3.23797L15.12 15.3034L7.06736 7.25085L4.18817 10.13L13.0209 18.9628L2.02114 16.0154L0.967285 19.9484L12.9859 23.1688C12.8483 22.5753 12.7755 21.9569 12.7755 21.3215C12.7755 16.8239 16.4215 13.1779 20.9191 13.1779C25.4167 13.1779 29.0627 16.8239 29.0627 21.3215C29.0627 21.9528 28.9908 22.5674 28.8549 23.1574L39.7776 26.0841L40.8314 22.1511L28.765 18.9179L39.7655 15.9703L38.7116 12.0373L26.6457 15.2703L34.6983 7.21779L31.8191 4.3386L23.1089 13.0488L26.0598 2.03573Z" fill="#7a6c78"/>
<path d="M28.8443 23.2032C28.5071 24.6288 27.7952 25.9095 26.8184 26.9356L34.7314 34.8487L37.6106 31.9695L28.8443 23.2032Z" fill="#7a6c78"/>
<path d="M26.7385 27.0184C25.7499 28.0281 24.5006 28.7816 23.0996 29.1699L25.979 39.9159L29.912 38.862L26.7385 27.0184Z" fill="#7a6c78"/>
<path d="M22.9527 29.2092C22.3027 29.3763 21.6214 29.4651 20.9193 29.4651C20.1671 29.4651 19.4387 29.3631 18.7472 29.1722L15.8652 39.928L19.7982 40.9818L22.9527 29.2092Z" fill="#7a6c78"/>
<path d="M18.6082 29.1325C17.2286 28.7249 16.0015 27.9618 15.0331 26.9492L7.10059 34.8817L9.97978 37.7609L18.6082 29.1325Z" fill="#7a6c78"/>
<path d="M14.9667 26.8791C14.0149 25.8601 13.3216 24.5965 12.9916 23.1929L2.0332 26.1292L3.08705 30.0622L14.9667 26.8791Z" fill="#7a6c78"/>
</g>
<defs>
<clipPath id="clip0_53_20797">
<rect width="168" height="41" fill="white" transform="translate(0.649902 0.0588379)"/>
</clipPath>
</defs>
</svg>
