<svg width="124" height="29" viewBox="0 0 124 29" fill="none" xmlns="http://www.w3.org/2000/svg">
<g clip-path="url(#clip0_53_20813)">
<path fill-rule="evenodd" clip-rule="evenodd" d="M11.1499 20.1588C10.2216 20.1588 9.33141 19.7901 8.67503 19.1337C8.01865 18.4773 7.6499 17.5871 7.6499 16.6588V0.558838H0.649902V16.6588C0.649902 22.4576 5.3511 27.1588 11.1499 27.1588H18.8499V20.1588H11.1499ZM32.1499 7.55884C31.3226 7.55884 30.5033 7.72179 29.739 8.0384C28.9746 8.355 28.2801 8.81906 27.6951 9.40407C27.1101 9.98907 26.6461 10.6836 26.3295 11.4479C26.0129 12.2123 25.8499 13.0315 25.8499 13.8588C25.8499 14.6862 26.0129 15.5054 26.3295 16.2697C26.6461 17.0341 27.1101 17.7286 27.6951 18.3136C28.2801 18.8986 28.9746 19.3627 29.739 19.6793C30.5033 19.9959 31.3226 20.1588 32.1499 20.1588C33.8208 20.1588 35.4232 19.4951 36.6047 18.3136C37.7862 17.1321 38.4499 15.5297 38.4499 13.8588C38.4499 12.188 37.7862 10.5855 36.6047 9.40407C35.4232 8.22259 33.8208 7.55884 32.1499 7.55884ZM18.8499 13.8588C18.8499 6.51374 24.8048 0.558838 32.1499 0.558838C39.495 0.558838 45.4499 6.51374 45.4499 13.8588C45.4499 21.2039 39.495 27.1588 32.1499 27.1588C24.8048 27.1588 18.8499 21.2039 18.8499 13.8588ZM107.75 7.55884C106.079 7.55884 104.477 8.22259 103.295 9.40407C102.114 10.5855 101.45 12.188 101.45 13.8588C101.45 15.5297 102.114 17.1321 103.295 18.3136C104.477 19.4951 106.079 20.1588 107.75 20.1588C109.421 20.1588 111.023 19.4951 112.205 18.3136C113.386 17.1321 114.05 15.5297 114.05 13.8588C114.05 12.188 113.386 10.5855 112.205 9.40407C111.023 8.22259 109.421 7.55884 107.75 7.55884ZM94.4499 13.8588C94.4499 6.51374 100.405 0.558838 107.75 0.558838C115.095 0.558838 121.05 6.51374 121.05 13.8588C121.05 21.2039 115.095 27.1588 107.75 27.1588C100.405 27.1588 94.4499 21.2039 94.4499 13.8588ZM60.1499 0.558838C52.8048 0.558838 46.8499 6.51374 46.8499 13.8588C46.8499 21.2039 52.8048 27.1588 60.1499 27.1588H79.7499C81.1282 27.1588 82.4575 26.9488 83.7077 26.5596L87.4499 28.5588L91.4875 20.996C92.5132 19.0708 93.0497 16.9229 93.0499 14.7415V13.8588C93.0499 6.51374 87.095 0.558838 79.7499 0.558838H60.1499ZM86.0499 13.8588C86.0499 12.188 85.3862 10.5855 84.2047 9.40407C83.0232 8.22259 81.4208 7.55884 79.7499 7.55884H60.1499C59.3226 7.55884 58.5033 7.72179 57.739 8.0384C56.9746 8.355 56.2801 8.81906 55.6951 9.40407C55.1101 9.98907 54.6461 10.6836 54.3295 11.4479C54.0129 12.2123 53.8499 13.0315 53.8499 13.8588C53.8499 14.6862 54.0129 15.5054 54.3295 16.2697C54.6461 17.0341 55.1101 17.7286 55.6951 18.3136C56.2801 18.8986 56.9746 19.3627 57.739 19.6793C58.5033 19.9959 59.3226 20.1588 60.1499 20.1588H79.7499C81.4123 20.1589 83.0074 19.5019 84.1874 18.331C85.3675 17.1601 86.037 15.5702 86.0499 13.9078V13.8588Z" fill="#331A2E"/>
<path d="M123.85 2.30884C123.85 2.77297 123.666 3.21809 123.338 3.54627C123.009 3.87446 122.564 4.05884 122.1 4.05884C121.636 4.05884 121.191 3.87446 120.863 3.54627C120.534 3.21809 120.35 2.77297 120.35 2.30884C120.35 1.84471 120.534 1.39959 120.863 1.0714C121.191 0.743212 121.636 0.558838 122.1 0.558838C122.564 0.558838 123.009 0.743212 123.338 1.0714C123.666 1.39959 123.85 1.84471 123.85 2.30884Z" fill="#331A2E"/>
</g>
<defs>
<clipPath id="clip0_53_20813">
<rect width="123.2" height="28" fill="white" transform="translate(0.649902 0.558838)"/>
</clipPath>
</defs>
</svg>
