<svg width="41" height="42" viewBox="0 0 41 42" fill="none" xmlns="http://www.w3.org/2000/svg">
<g clip-path="url(#clip0_53_20817)">
<path fill-rule="evenodd" clip-rule="evenodd" d="M14.5647 0.574951C12.3083 0.574951 10.1444 1.47129 8.54891 3.06678L0.850098 10.7655V14.2895C0.850098 16.7792 1.91954 19.0191 3.62411 20.5749C1.91954 22.1307 0.850098 24.3706 0.850098 26.8603V30.3843L8.54891 38.0831C10.1444 39.6786 12.3083 40.5749 14.5647 40.5749C17.0544 40.5749 19.2943 39.5055 20.8501 37.8009C22.4059 39.5055 24.6458 40.5749 27.1355 40.5749C29.3919 40.5749 31.5558 39.6786 33.1513 38.0831L40.8501 30.3843V26.8603C40.8501 24.3706 39.7807 22.1307 38.0761 20.5749C39.7807 19.0191 40.8501 16.7792 40.8501 14.2895V10.7655L33.1513 3.06678C31.5558 1.47129 29.3919 0.574951 27.1355 0.574951C24.6458 0.574951 22.4059 1.64439 20.8501 3.34896C19.2943 1.64439 17.0544 0.574951 14.5647 0.574951ZM26.6089 20.5749C26.513 20.4874 26.4189 20.3975 26.3267 20.3053L20.8501 14.8287L15.3735 20.3053C15.2813 20.3975 15.1872 20.4874 15.0913 20.5749C15.1872 20.6624 15.2813 20.7523 15.3735 20.8445L20.8501 26.3211L26.3267 20.8445C26.4189 20.7523 26.513 20.6624 26.6089 20.5749ZM23.0723 30.3843V32.0673C23.0723 34.3113 24.8915 36.1305 27.1355 36.1305C28.2131 36.1305 29.2466 35.7024 30.0086 34.9404L36.4057 28.5433V26.8603C36.4057 24.6163 34.5865 22.7971 32.3425 22.7971C31.2649 22.7971 30.2314 23.2252 29.4694 23.9872L23.0723 30.3843ZM18.6279 30.3843L12.2308 23.9872C11.4688 23.2252 10.4353 22.7971 9.35772 22.7971C7.11369 22.7971 5.29454 24.6163 5.29454 26.8603V28.5433L11.6916 34.9404C12.4536 35.7024 13.4871 36.1305 14.5647 36.1305C16.8087 36.1305 18.6279 34.3113 18.6279 32.0673V30.3843ZM18.6279 9.08257V10.7655L12.2308 17.1626C11.4688 17.9246 10.4353 18.3527 9.35772 18.3527C7.11369 18.3527 5.29454 16.5335 5.29454 14.2895V12.6065L11.6916 6.20947C12.4536 5.44748 13.4871 5.0194 14.5647 5.0194C16.8087 5.0194 18.6279 6.83854 18.6279 9.08257ZM29.4694 17.1626L23.0723 10.7655V9.08257C23.0723 6.83854 24.8915 5.0194 27.1355 5.0194C28.2131 5.0194 29.2466 5.44748 30.0086 6.20947L36.4057 12.6065V14.2895C36.4057 16.5335 34.5865 18.3527 32.3425 18.3527C31.2649 18.3527 30.2314 17.9246 29.4694 17.1626Z" fill="#331A2E"/>
</g>
<defs>
<clipPath id="clip0_53_20817">
<rect width="40" height="41" fill="white" transform="translate(0.850098 0.0588379)"/>
</clipPath>
</defs>
</svg>
